<svg width="67" height="24" viewBox="0 0 67 24" fill="none" xmlns="http://www.w3.org/2000/svg">
<path d="M34.2595 16.3479L35.0534 13.5126H35.0912L35.8472 16.3479H34.2595ZM30.8193 19.6368H33.3522L33.7302 18.3137H36.3387L36.6789 19.6368H39.3252L36.3387 10.4883H33.8436L30.8193 19.6368Z" fill="#231F20"/>
<path d="M39.8544 19.6368H42.4251V16.1588H45.6762V13.9662H42.4251V12.8321H46.2433V10.4883H39.8544V19.6368Z" fill="#231F20"/>
<path d="M49.6834 10.4883H47.1506V19.6368H49.6834V10.4883Z" fill="#231F20"/>
<path d="M20.0455 13.2094V4.36328H16.9834C17.059 8.25707 17.1346 12.1509 20.0455 13.2094Z" fill="#00ADEE"/>
<path d="M31.0086 4.36328H27.9465C27.7575 7.12296 28.3624 10.6765 27.6441 12.9069C26.4344 10.5631 25.4893 7.95464 25.5271 4.36328H22.465C22.5028 6.66931 22.8052 8.71072 23.3723 10.4497C20.6126 11.7728 20.3101 15.5532 20.3101 19.5982H23.3723C23.5613 16.7629 22.9564 13.096 23.6747 10.7521C24.8466 13.2472 25.8295 15.8934 25.7917 19.5982H28.8538C28.8538 17.3678 28.4758 15.5154 27.9465 13.8142C30.2147 11.8862 31.2732 8.78632 31.0086 4.36328Z" fill="#00ADEE"/>
</svg>
