<svg width="10" height="6" viewBox="0 0 10 6" fill="none" xmlns="http://www.w3.org/2000/svg">
<path d="M5.00033 5.47884C4.88921 5.47884 4.78505 5.46148 4.68783 5.42676C4.5906 5.39204 4.50033 5.33301 4.41699 5.24967L0.583659 1.41634C0.430881 1.26356 0.354492 1.06912 0.354492 0.833008C0.354492 0.596897 0.430881 0.402452 0.583659 0.249674C0.736437 0.0968967 0.930881 0.0205078 1.16699 0.0205078C1.4031 0.0205078 1.59755 0.0968967 1.75033 0.249674L5.00033 3.49967L8.25033 0.249674C8.4031 0.0968967 8.59755 0.0205078 8.83366 0.0205078C9.06977 0.0205078 9.26421 0.0968967 9.41699 0.249674C9.56977 0.402452 9.64616 0.596897 9.64616 0.833008C9.64616 1.06912 9.56977 1.26356 9.41699 1.41634L5.58366 5.24967C5.50033 5.33301 5.41005 5.39204 5.31283 5.42676C5.2156 5.46148 5.11144 5.47884 5.00033 5.47884Z" fill="#B7B8C3"/>
</svg>
