<svg width="50" height="22" viewBox="0 0 50 22" fill="none" xmlns="http://www.w3.org/2000/svg">
<path d="M15.2886 12.1243C14.9404 12.1621 14.7209 11.8442 14.615 11.5566C14.5998 11.5112 14.5771 11.5112 14.5544 11.549C13.3812 13.0402 16.1364 13.835 16.1743 11.8669C16.1894 10.8981 15.4552 10.0427 14.6452 9.59612C14.3046 9.40689 13.9337 9.27064 13.5553 9.18737C13.5023 9.17224 13.2449 9.12682 12.9875 9.0814C13.8202 8.80134 14.7361 8.36231 15.0918 7.62051C15.1751 7.43885 15.2129 7.24962 15.1978 7.06795C15.1978 6.25046 14.5241 6.1672 14.5241 6.1672C14.3198 6.12178 14.0927 6.15206 13.8807 6.24289C13.3812 6.46997 12.927 7.12851 12.6469 7.66593C12.874 5.53894 11.5342 3.59361 9.77814 2.55661C9.763 2.54904 9.75543 2.54147 9.74029 2.54147C9.67974 2.5339 9.61918 2.57175 9.61161 2.6323C9.59647 2.70043 9.61161 2.75341 9.65703 2.78369C10.3761 3.32112 10.6032 4.3884 10.5956 5.22103C10.5956 5.81144 10.4821 6.75761 11.1406 6.95441C11.7689 7.14365 12.4728 6.38671 11.6932 5.9931C11.4207 5.85685 11.0422 6.05366 11.1936 6.35643C11.2163 6.40185 11.2315 6.43213 11.239 6.43969C11.3147 6.51539 11.4131 6.5608 11.5115 6.56837C11.5267 6.56837 11.5418 6.57594 11.5494 6.59108C11.5645 6.61379 11.5569 6.64407 11.5267 6.65921C10.9514 6.97712 10.6562 5.83415 11.5721 5.72817C12.0414 5.67519 12.2306 6.05366 12.2912 6.46997C12.3669 6.99983 12.3593 7.52211 12.2685 8.03683C12.2685 8.03683 12.2079 8.3169 12.1776 8.45315C12.1776 8.46071 12.1701 8.46828 12.1701 8.47585C12.1322 8.63481 12.0944 8.7862 12.0489 8.93002C11.731 8.94515 11.398 8.97543 11.0649 9.02842C11.0422 8.94515 11.0195 8.85432 10.9892 8.77106C10.9514 8.63481 10.9135 8.50613 10.8757 8.36988C10.8378 8.23363 10.8 8.09739 10.7622 7.96871C10.7243 7.83246 10.6865 7.69621 10.6486 7.55996C10.6108 7.42371 10.5729 7.28746 10.5351 7.15121C10.4972 7.01497 10.4594 6.87872 10.4215 6.75004C10.3837 6.61379 10.3458 6.48511 10.308 6.34886C10.2701 6.21261 10.2323 6.08393 10.1945 5.94769C10.1566 5.81901 10.1188 5.68276 10.0809 5.55408C10.0431 5.4254 10.0052 5.29672 9.97494 5.16804C9.9371 5.03936 9.90682 4.91825 9.86897 4.78957C9.83112 4.66846 9.80085 4.54735 9.763 4.42624C9.73272 4.30513 9.69487 4.19159 9.6646 4.07048C9.63432 3.95694 9.59647 3.8434 9.5662 3.72986C9.53592 3.62389 9.50564 3.51035 9.47536 3.40438C9.44509 3.29841 9.41481 3.20001 9.38453 3.09404C9.35425 2.99563 9.33155 2.89723 9.30127 2.79883C9.27856 2.708 9.24828 2.61717 9.22558 2.52633C9.20287 2.44307 9.18016 2.35981 9.14988 2.27654C9.12717 2.20085 9.10446 2.12516 9.08176 2.04946C9.05905 1.98134 9.04391 1.91321 9.0212 1.84509C9.00606 1.78454 8.98335 1.72398 8.96821 1.66343C8.95308 1.61044 8.93794 1.55745 8.9228 1.50447C8.90766 1.45905 8.90009 1.42121 8.88495 1.37579C8.87739 1.34551 8.86224 1.30767 8.85467 1.27739C8.83954 1.2244 8.8244 1.17899 8.79412 1.13357C8.75627 1.08058 8.726 1.0276 8.67301 0.997322C8.62759 0.967044 8.57461 0.944336 8.52162 0.944336C8.46864 0.944336 8.40808 0.967044 8.37024 0.997322C8.31725 1.03517 8.2794 1.08815 8.24913 1.13357C8.21885 1.17899 8.20371 1.2244 8.18857 1.27739C8.181 1.30767 8.16586 1.34551 8.15829 1.37579C8.14316 1.42121 8.12802 1.45905 8.12045 1.50447C8.10531 1.55745 8.09017 1.61044 8.07503 1.66343C8.05989 1.72398 8.03718 1.78454 8.02204 1.84509C7.99934 1.91321 7.9842 1.98134 7.96149 2.04946C7.93878 2.12516 7.91607 2.20085 7.89337 2.27654C7.87066 2.35981 7.84795 2.44307 7.81767 2.52633C7.79496 2.61717 7.76469 2.708 7.74198 2.79883C7.7117 2.89723 7.68899 2.99563 7.65872 3.09404C7.62844 3.20001 7.59816 3.29841 7.56788 3.40438C7.5376 3.51035 7.50733 3.62389 7.47705 3.72986C7.44677 3.8434 7.40893 3.95694 7.37865 4.07048C7.34837 4.19159 7.31052 4.30513 7.28025 4.42624C7.2424 4.54735 7.21212 4.66846 7.17428 4.78957C7.13643 4.91825 7.10615 5.03936 7.06831 5.16804C7.03046 5.29672 6.99261 5.4254 6.96233 5.55408C6.92449 5.68276 6.88664 5.81901 6.84879 5.94769C6.81095 6.08393 6.7731 6.21261 6.73525 6.34886C6.69741 6.48511 6.65956 6.61379 6.62171 6.75004C6.58386 6.88629 6.54602 7.02254 6.50817 7.15121C6.47032 7.28746 6.43248 7.42371 6.39463 7.55996C6.35678 7.69621 6.31894 7.83246 6.28109 7.96871C6.24324 8.10496 6.2054 8.2412 6.16755 8.36988C6.1297 8.50613 6.09186 8.63481 6.05401 8.77106C6.0313 8.85432 6.00859 8.94515 5.97832 9.02842C5.64526 8.97543 5.31221 8.93758 4.9943 8.93002C4.94888 8.7862 4.91104 8.63481 4.87319 8.47585C4.87319 8.46828 4.86562 8.46071 4.86562 8.45315C4.83534 8.3169 4.77479 8.03683 4.77479 8.03683C4.68395 7.52211 4.67639 7.0074 4.75208 6.46997C4.81263 6.05366 5.00187 5.66762 5.47117 5.72817C6.38706 5.83415 6.09186 6.97712 5.51659 6.65921C5.49388 6.64407 5.48631 6.61379 5.49388 6.59108C5.50145 6.57594 5.51658 6.56837 5.53172 6.56837C5.63769 6.5608 5.72853 6.52296 5.80422 6.43969C5.81179 6.43213 5.82693 6.40185 5.84964 6.35643C6.00103 6.06123 5.62256 5.85685 5.35006 5.9931C4.57041 6.38671 5.27436 7.14365 5.90262 6.95441C6.56116 6.75761 6.44762 5.81144 6.44762 5.22103C6.44762 4.3884 6.6747 3.32112 7.38622 2.78369C7.43163 2.75341 7.44677 2.70043 7.43163 2.6323C7.42407 2.57175 7.36351 2.5339 7.30295 2.54147C7.28782 2.54147 7.28025 2.54904 7.26511 2.55661C5.50902 3.59361 4.16924 5.53894 4.39632 7.66593C4.11625 7.12094 3.66209 6.46997 3.16251 6.24289C2.95057 6.14449 2.72349 6.12178 2.51912 6.1672C2.51912 6.1672 1.84544 6.25046 1.84544 7.06795C1.8303 7.24962 1.86058 7.44642 1.95141 7.62051C2.30717 8.36231 3.22307 8.80134 4.0557 9.0814C3.79834 9.11925 3.53341 9.17224 3.48799 9.18737C3.10953 9.27821 2.73863 9.40689 2.39801 9.59612C1.58808 10.0427 0.853855 10.8981 0.868994 11.8669C0.906841 13.835 3.66209 13.0402 2.48884 11.549C2.45856 11.5112 2.44342 11.5187 2.42828 11.5566C2.32231 11.8442 2.1028 12.1621 1.75461 12.1243C1.30802 12.0789 1.18691 11.5717 1.31559 11.1933C1.51996 10.565 2.03468 10.1411 2.60238 9.8232C3.26092 9.45987 3.93459 9.33119 4.66882 9.33119C4.67639 9.33119 4.68395 9.33119 4.69909 9.33119C4.84291 9.73237 5.01701 10.0957 5.20624 10.4136C4.86562 10.5574 4.60069 10.8072 4.40389 11.1554C4.36604 11.2235 4.3282 11.2235 4.29792 11.1478C4.10111 10.671 3.76806 10.3455 3.29876 10.179C3.1171 10.1108 2.89002 10.0654 2.70078 10.1487C2.51912 10.2244 2.39044 10.4515 2.45099 10.6483C2.55696 10.9737 3.05654 10.9965 3.1398 10.6407C3.14737 10.6028 3.17765 10.5726 3.22307 10.5726C3.26091 10.5801 3.29119 10.6104 3.29119 10.6558C3.26091 11.8896 3.52584 13.025 4.65368 13.6003C4.525 13.9788 4.35847 14.3421 4.12382 14.6676C3.83619 15.0688 3.41987 15.4699 2.92029 15.5759C2.77647 15.6062 2.64023 15.5759 2.51912 15.4927C2.26176 15.3261 2.16336 14.9174 2.26933 14.6449C2.3753 14.3875 2.64023 14.1983 2.92029 14.274C3.16251 14.3345 3.32147 14.5616 3.41987 14.7736C3.43501 14.8114 3.45772 14.819 3.48043 14.7811C4.51743 13.1916 1.70163 12.6466 1.83787 14.607C1.86058 14.9628 1.92114 15.2731 2.11037 15.5608C2.34502 15.909 2.66294 16.1133 3.08682 16.1588C4.4266 16.3101 5.48631 15.5229 5.87991 14.2816C6.01616 13.8652 6.13727 13.4414 6.25838 13.0175C6.34922 12.6996 6.44005 12.3741 6.52331 12.0562C6.68227 12.1924 6.84879 12.3362 7.01532 12.4649C7.47705 12.8434 7.93878 13.2294 8.30968 13.676C8.28697 13.7139 8.26427 13.7441 8.24156 13.782C8.00691 13.9939 7.82524 14.2588 7.68899 14.5919C7.49976 15.0536 6.55359 14.6222 7.26511 13.9939C7.30295 13.9636 7.29539 13.9409 7.24997 13.9258C5.44846 13.3505 5.97832 16.3101 7.46948 15.5154C7.47705 15.5078 7.49219 15.5078 7.50733 15.5154C7.53004 15.5229 7.54517 15.5532 7.53761 15.5759C7.34837 16.1361 7.59816 16.5524 8.00691 16.8551L8.51405 17.1579L9.0212 16.8551C9.42995 16.5524 9.67974 16.1361 9.4905 15.5759C9.48293 15.5532 9.49807 15.5229 9.52078 15.5154C9.53592 15.5078 9.54349 15.5154 9.55863 15.5154C11.0574 16.3101 11.5796 13.3505 9.77814 13.9258C9.73272 13.9409 9.72515 13.9636 9.763 13.9939C10.4821 14.6222 9.52835 15.0536 9.33912 14.5919C9.20287 14.2664 9.0212 13.9939 8.78655 13.782C8.76384 13.7441 8.74113 13.7139 8.71843 13.676C9.08176 13.2218 9.55106 12.8434 10.0128 12.4649C10.1793 12.3287 10.3458 12.1924 10.5048 12.0562C10.5881 12.3816 10.6789 12.6996 10.7697 13.0175C10.8908 13.4414 11.0195 13.8652 11.1482 14.2816C11.5418 15.5229 12.5939 16.3101 13.9413 16.1588C14.3652 16.1133 14.6831 15.909 14.9177 15.5608C15.107 15.2731 15.1675 14.9628 15.1902 14.607C15.3341 12.639 12.5182 13.1916 13.5477 14.7811C13.5704 14.819 13.5931 14.819 13.6082 14.7736C13.7066 14.5616 13.8656 14.3345 14.1078 14.274C14.3879 14.1983 14.6604 14.3875 14.7588 14.6449C14.8648 14.9174 14.7739 15.3261 14.509 15.4927C14.3879 15.5759 14.2516 15.6062 14.1078 15.5759C13.6082 15.4699 13.1919 15.0688 12.9043 14.6676C12.6696 14.3421 12.5031 13.9788 12.3744 13.6003C13.5098 13.025 13.7672 11.8896 13.7369 10.6558C13.7293 10.618 13.7596 10.5801 13.805 10.5726C13.8429 10.565 13.8807 10.5953 13.8883 10.6407C13.964 10.9965 14.4636 10.9737 14.5771 10.6483C14.6452 10.4515 14.509 10.2244 14.3273 10.1487C14.1381 10.0654 13.9186 10.1108 13.7293 10.179C13.2676 10.3455 12.9346 10.671 12.7302 11.1478C12.6999 11.216 12.6696 11.2235 12.6242 11.1554C12.4274 10.8072 12.1549 10.5574 11.8219 10.4136C12.0111 10.0957 12.1852 9.73237 12.329 9.33119C12.3366 9.33119 12.3442 9.33119 12.3593 9.33119C13.1011 9.33119 13.7672 9.45987 14.4257 9.8232C14.9934 10.1411 15.5082 10.5574 15.7125 11.1933C15.8563 11.5642 15.7352 12.0713 15.2886 12.1243ZM4.53257 8.89974C4.07084 8.7862 3.59397 8.60453 3.18522 8.35474C3.01112 8.24877 2.83703 8.10495 2.71592 7.93086C2.64023 7.81732 2.59481 7.68107 2.57967 7.53725C3.00356 7.69621 3.52584 7.82489 3.52584 7.82489C3.52584 7.82489 3.41987 7.29503 3.27605 6.86358C3.54855 6.96198 3.81348 7.21934 3.94216 7.42371C4.19952 7.83246 4.54771 8.86946 4.57798 8.90731C4.56284 8.90731 4.54771 8.90731 4.53257 8.89974ZM4.83534 13.0175C4.44174 12.2454 4.38875 11.0494 5.35006 10.6558C5.38034 10.724 5.41818 10.7921 5.45603 10.8526C5.20624 11.7307 4.9943 12.4876 4.83534 13.0175ZM5.61499 10.3001C5.44089 10.02 5.27437 9.70966 5.13812 9.3539C5.38034 9.36904 5.62256 9.39175 5.85721 9.42959C5.77394 9.7248 5.69068 10.0124 5.61499 10.3001ZM8.30968 4.91068C8.32482 4.85013 8.33996 4.782 8.37781 4.72902C8.40808 4.67603 8.44593 4.62305 8.50649 4.60034C8.60489 4.57006 8.68058 4.70631 8.71086 4.782C8.73357 4.83499 8.74113 4.88797 8.75627 4.93339C8.77898 5.01665 8.80169 5.10749 8.81683 5.19075C8.86224 5.36485 8.90009 5.53894 8.94551 5.71304C8.99092 5.88713 9.02877 6.06123 9.07419 6.23532C9.11961 6.40942 9.15745 6.58351 9.1953 6.75761C9.23314 6.9317 9.27856 7.1058 9.31641 7.27989C9.35425 7.45399 9.39967 7.62809 9.43752 7.80218C9.47536 7.97628 9.52078 8.15037 9.55863 8.32447C9.59647 8.49856 9.64189 8.67266 9.68731 8.84675C9.69487 8.89217 9.71001 8.93002 9.71758 8.97543C9.71758 8.99057 9.74029 9.10411 9.74786 9.10411H7.29539C7.64358 7.69621 7.96149 6.30345 8.30968 4.91068ZM8.98335 14.6373C8.98335 14.9704 8.86224 15.3186 8.5519 15.6819C8.54433 15.6895 8.53676 15.697 8.52162 15.7046C8.51405 15.697 8.49892 15.6895 8.49135 15.6819C8.181 15.3186 8.05989 14.9704 8.05989 14.6373C8.05989 14.3421 8.28697 14.1907 8.51405 14.1832C8.75627 14.1907 8.98335 14.3421 8.98335 14.6373ZM9.78571 12.2C9.49807 12.4346 9.20287 12.6769 8.93794 12.9342C8.97579 12.8055 8.99092 12.6844 8.98335 12.5633C8.98335 12.2681 8.75627 12.1167 8.52162 12.1091C8.29454 12.1091 8.06746 12.2605 8.05989 12.5633C8.05989 12.6844 8.07503 12.8055 8.10531 12.9342C7.83281 12.6769 7.54518 12.4346 7.25754 12.2C7.0456 12.0259 6.83365 11.8518 6.63685 11.6777C6.72768 11.3371 6.81852 10.9889 6.90935 10.6407H10.1339C10.2247 10.9889 10.3156 11.3295 10.4064 11.6777C10.2096 11.8518 9.99765 12.0259 9.78571 12.2ZM12.2155 13.0175C12.0641 12.4876 11.8446 11.7307 11.5948 10.8526C11.6326 10.7845 11.6705 10.724 11.7008 10.6558C12.6621 11.0494 12.6015 12.2454 12.2155 13.0175ZM11.4434 10.3001C11.4358 10.3001 11.4358 10.3001 11.4434 10.3001C11.3601 10.02 11.2769 9.7248 11.1936 9.42959C11.4283 9.39175 11.6705 9.36904 11.9127 9.3539C11.7765 9.70209 11.6175 10.02 11.4434 10.3001ZM12.4728 8.91488C12.5031 8.87703 12.8513 7.84003 13.1087 7.43128C13.2373 7.22691 13.5023 6.96955 13.7748 6.87115C13.6309 7.3026 13.525 7.83246 13.525 7.83246C13.525 7.83246 14.0473 7.70378 14.4711 7.54482C14.456 7.68864 14.4106 7.83246 14.3349 7.93843C14.2214 8.11252 14.0473 8.25634 13.8656 8.36231C13.4569 8.6121 12.98 8.79377 12.5182 8.90731C12.5031 8.90731 12.488 8.90731 12.4728 8.91488Z" fill="#25A25F"/>
<path d="M1.80003 13.3959C1.3383 13.29 0.974966 13.343 0.67976 13.5019C0.149905 13.782 0.57379 14.5995 1.11122 14.327C1.40642 14.1756 1.66378 13.9107 1.84544 13.4716C1.85301 13.4565 1.85301 13.4338 1.86058 13.4186C1.83787 13.4035 1.81517 13.3959 1.80003 13.3959Z" fill="#25A25F"/>
<path d="M1.83788 9.42959C2.17093 9.42959 2.51912 9.31605 2.88245 9.00571C2.89759 8.99814 2.90516 8.983 2.92029 8.96029C2.90516 8.94516 2.89759 8.93002 2.88245 8.91488C2.51912 8.60453 2.17093 8.49099 1.83788 8.49099C1.2399 8.49856 1.2399 9.42203 1.83788 9.42959Z" fill="#25A25F"/>
<path d="M3.94973 6.25046C3.96487 6.25803 3.98001 6.2656 4.00271 6.27317C4.01785 6.25803 4.02542 6.24289 4.03299 6.22775C4.21466 5.78873 4.22223 5.41783 4.11625 5.09992C3.92702 4.53222 3.04897 4.81228 3.23064 5.38755C3.32147 5.70547 3.54098 5.9931 3.94973 6.25046Z" fill="#25A25F"/>
<path d="M15.2508 13.3959C15.7125 13.29 16.0758 13.343 16.3711 13.5019C16.9009 13.782 16.477 14.5995 15.9396 14.327C15.6444 14.1756 15.387 13.9107 15.2054 13.4716C15.1978 13.4565 15.1978 13.4338 15.1902 13.4186C15.2129 13.4035 15.2356 13.3959 15.2508 13.3959Z" fill="#25A25F"/>
<path d="M15.2129 9.42959C14.8799 9.42959 14.5317 9.31605 14.1684 9.00571C14.1532 8.99814 14.1457 8.983 14.1305 8.96029C14.1457 8.94516 14.1532 8.93002 14.1684 8.91488C14.5317 8.60453 14.8799 8.49099 15.2129 8.49099C15.8109 8.49856 15.8109 9.42203 15.2129 9.42959Z" fill="#25A25F"/>
<path d="M13.1011 6.25046C13.086 6.25803 13.0708 6.2656 13.0481 6.27317C13.033 6.25803 13.0254 6.24289 13.0178 6.22775C12.8362 5.78873 12.8286 5.41783 12.9346 5.09992C13.1238 4.53222 14.0018 4.81228 13.8202 5.38755C13.7293 5.70547 13.5023 5.9931 13.1011 6.25046Z" fill="#25A25F"/>
<path d="M1.0658 17.3547L0.596501 17.824L0.460251 17.6878L1.05066 17.0974L1.45941 17.5061L1.3383 17.6272L1.0658 17.3547Z" fill="#25A25F"/>
<path d="M1.95142 17.9376L2.11794 18.0814L1.59566 18.1798L1.58052 18.7248L1.39129 18.5658L1.40642 18.1117L1.17177 18.3842L1.02795 18.2631L1.57295 17.6272L1.71677 17.7483L1.45941 18.0435L1.95142 17.9376Z" fill="#25A25F"/>
<path d="M2.5721 19.2546L2.29961 19.073L2.1785 19.1638L2.01954 19.0578L2.73106 18.528L2.92787 18.6567L2.70835 19.5196L2.54183 19.406L2.5721 19.2546ZM2.70835 18.7551L2.43586 18.967L2.61752 19.0881L2.70835 18.7551Z" fill="#25A25F"/>
<path d="M3.4123 19.9132L3.53341 19.2546L3.04898 19.7164L2.87488 19.6255L3.52585 19.0276L3.73022 19.1411L3.5864 20.0191L3.4123 19.9132Z" fill="#25A25F"/>
<path d="M4.34334 19.7088C4.38875 19.7239 4.41903 19.7542 4.44931 19.7769C4.47959 19.8072 4.49472 19.8375 4.50986 19.8753C4.525 19.9132 4.525 19.9434 4.525 19.9813C4.525 20.0191 4.51743 20.057 4.49473 20.0948C4.47959 20.1327 4.45688 20.163 4.4266 20.1932C4.39632 20.2235 4.36605 20.2387 4.33577 20.2538C4.29792 20.2689 4.26007 20.2765 4.22223 20.2689C4.18438 20.2689 4.13896 20.2614 4.10112 20.2387L3.79077 20.1024L4.12382 19.3379L4.29792 19.4136L4.19952 19.6482L4.34334 19.7088ZM4.16167 20.0721C4.19952 20.0873 4.23737 20.0948 4.26764 20.0797C4.29792 20.0721 4.32063 20.0494 4.33577 20.0191C4.35091 19.9889 4.35091 19.9586 4.33577 19.9283C4.32063 19.898 4.29792 19.8753 4.26007 19.8602L4.13139 19.8072L4.04056 20.0191L4.16167 20.0721Z" fill="#25A25F"/>
<path d="M5.12298 20.6323L4.94132 20.5717L4.97159 20.4809C4.91861 20.4657 4.88076 20.443 4.84291 20.4128C4.80507 20.3825 4.77479 20.3446 4.75208 20.3068C4.72937 20.2689 4.71424 20.2235 4.71424 20.1781C4.70667 20.1327 4.71423 20.0873 4.72937 20.0419C4.74451 19.9964 4.76722 19.9586 4.7975 19.9207C4.82778 19.8905 4.86562 19.8602 4.90347 19.845C4.94132 19.8299 4.98673 19.8148 5.03972 19.8148C5.08513 19.8148 5.13812 19.8223 5.18353 19.8375L5.21381 19.7466L5.39548 19.8072L5.3652 19.898C5.41819 19.9132 5.45603 19.9359 5.49388 19.9662C5.53173 19.9964 5.562 20.0343 5.58471 20.0721C5.60742 20.11 5.62256 20.1554 5.62256 20.2008C5.63013 20.2462 5.62256 20.2916 5.60742 20.3371C5.59228 20.3825 5.56957 20.4203 5.5393 20.4582C5.50902 20.4884 5.47117 20.5187 5.43332 20.5339C5.39548 20.549 5.35006 20.5641 5.29708 20.5641C5.25166 20.5641 5.19867 20.5566 5.15326 20.5414L5.12298 20.6323ZM5.02458 20.3143L5.12298 20.004C5.10027 19.9964 5.07756 19.9889 5.05486 19.9964C5.03215 19.9964 5.00944 20.004 4.9943 20.0116C4.97159 20.0191 4.95646 20.0343 4.94132 20.0494C4.92618 20.0646 4.91861 20.0873 4.91104 20.11C4.90347 20.1327 4.90347 20.1554 4.90347 20.1781C4.90347 20.2008 4.91104 20.2159 4.91861 20.2387C4.92618 20.2538 4.94132 20.2765 4.96402 20.2916C4.97916 20.2992 5.00187 20.3068 5.02458 20.3143ZM5.20624 20.3749C5.22895 20.3825 5.25166 20.39 5.27437 20.3825C5.29708 20.3825 5.31978 20.3749 5.33492 20.3673C5.35763 20.3598 5.37277 20.3446 5.38791 20.3295C5.40305 20.3143 5.41062 20.2916 5.41819 20.2689C5.42575 20.2462 5.42576 20.2235 5.42576 20.2008C5.42576 20.1781 5.41818 20.163 5.41062 20.1403C5.40305 20.1251 5.38791 20.1024 5.3652 20.0873C5.35006 20.0721 5.32735 20.0646 5.30465 20.0494L5.20624 20.3749Z" fill="#25A25F"/>
<path d="M6.21297 20.7609L5.89506 20.6852L5.81936 20.8139L5.63013 20.7685L6.107 20.0191L6.33408 20.0721L6.43248 20.9577L6.23568 20.9123L6.21297 20.7609ZM6.15999 20.2462L5.97832 20.5414L6.19026 20.5868L6.15999 20.2462Z" fill="#25A25F"/>
<path d="M7.11372 20.3749C7.07588 20.3673 7.0456 20.3749 7.01532 20.3825C6.98505 20.39 6.95477 20.4052 6.93206 20.4279C6.90935 20.4506 6.88664 20.4733 6.87151 20.5036C6.85637 20.5339 6.84123 20.5641 6.84123 20.602C6.83366 20.6398 6.84123 20.6701 6.8488 20.708C6.85637 20.7382 6.8715 20.7685 6.88664 20.7988C6.90935 20.8215 6.93206 20.8442 6.96234 20.8669C6.99261 20.882 7.02289 20.8972 7.06074 20.9048C7.11373 20.9123 7.15914 20.9048 7.19699 20.8896C7.2424 20.8745 7.27268 20.8442 7.30296 20.8064L7.43164 20.9275C7.37865 20.988 7.32567 21.0334 7.25754 21.0561C7.18942 21.0864 7.11373 21.094 7.03046 21.0789C6.96991 21.0713 6.90935 21.0486 6.85637 21.0183C6.80338 20.988 6.76554 20.9502 6.72769 20.9048C6.68984 20.8593 6.66713 20.8064 6.652 20.7534C6.63686 20.7004 6.63686 20.6398 6.64443 20.5793C6.65199 20.5187 6.6747 20.4657 6.70498 20.4128C6.73526 20.3673 6.7731 20.3219 6.81852 20.2916C6.86394 20.2614 6.91692 20.2311 6.96991 20.2235C7.03046 20.2084 7.08345 20.2084 7.15157 20.2159C7.23483 20.2311 7.30296 20.2538 7.36351 20.2992C7.42407 20.3446 7.46948 20.3976 7.49219 20.4733L7.32567 20.5566C7.31053 20.5112 7.28025 20.4733 7.24997 20.443C7.21213 20.4052 7.16671 20.3825 7.11372 20.3749Z" fill="#25A25F"/>
<path d="M7.86309 21.1318L7.90094 20.4657L7.65115 20.4506L7.65872 20.2765L8.34753 20.3143L8.33996 20.4884L8.09017 20.4733L8.05233 21.1394L7.86309 21.1318Z" fill="#25A25F"/>
<path d="M8.70329 20.9199L8.71086 21.1545L8.52163 21.1621L8.49892 20.3219L8.86225 20.3143C8.90766 20.3143 8.95308 20.3219 8.99093 20.3371C9.02877 20.3522 9.05905 20.3749 9.08933 20.3976C9.11204 20.4203 9.13475 20.4582 9.14988 20.4884C9.16502 20.5263 9.17259 20.5641 9.17259 20.602C9.17259 20.6474 9.16502 20.6852 9.15745 20.7231C9.14988 20.7609 9.12718 20.7912 9.0969 20.8215C9.06662 20.8518 9.03634 20.8745 8.9985 20.8896C8.96065 20.9048 8.91523 20.9123 8.86982 20.9199H8.70329ZM8.69572 20.4884L8.70329 20.7458L8.85468 20.7382C8.89252 20.7382 8.93037 20.7231 8.94551 20.7004C8.96822 20.6777 8.97579 20.6474 8.97579 20.6096C8.97579 20.5717 8.96065 20.5414 8.93794 20.5187C8.91523 20.496 8.87739 20.4884 8.83954 20.4884H8.69572Z" fill="#25A25F"/>
<path d="M9.84627 21.094C9.78571 21.1016 9.72516 21.094 9.67217 21.0789C9.61919 21.0637 9.5662 21.041 9.52078 21.0032C9.47537 20.9653 9.43752 20.9275 9.40724 20.8745C9.37697 20.8215 9.36183 20.7685 9.35426 20.708C9.34669 20.6474 9.35426 20.5868 9.3694 20.5339C9.38454 20.4809 9.41481 20.4279 9.44509 20.3825C9.48294 20.3371 9.52078 20.2992 9.57377 20.2765C9.62675 20.2462 9.67974 20.2311 9.7403 20.2235C9.80085 20.2159 9.8614 20.2235 9.92196 20.2387C9.97495 20.2538 10.0279 20.2765 10.0733 20.3144C10.1188 20.3522 10.1566 20.39 10.1793 20.443C10.2096 20.496 10.2247 20.549 10.2323 20.6096C10.2399 20.6701 10.2323 20.7307 10.2172 20.7836C10.202 20.8366 10.1717 20.8896 10.1415 20.935C10.1036 20.9805 10.0658 21.0107 10.0128 21.041C9.96738 21.0637 9.91439 21.0864 9.84627 21.094ZM9.83113 20.9199C9.86898 20.9123 9.89925 20.9048 9.92953 20.8896C9.95981 20.8745 9.98252 20.8518 10.0052 20.8291C10.0279 20.8064 10.0431 20.7761 10.0506 20.7382C10.0582 20.708 10.0582 20.6701 10.0582 20.6323C10.0506 20.5944 10.0431 20.5641 10.0279 20.5339C10.0128 20.5036 9.99008 20.4809 9.96738 20.4582C9.94467 20.4355 9.91439 20.4203 9.88411 20.4128C9.85384 20.4052 9.81599 20.3976 9.78571 20.4052C9.74787 20.4128 9.71759 20.4203 9.68731 20.4355C9.65703 20.4506 9.63432 20.4733 9.61162 20.496C9.58891 20.5187 9.57377 20.549 9.5662 20.5868C9.55863 20.6247 9.55863 20.655 9.55863 20.6928C9.5662 20.7307 9.57377 20.7609 9.58891 20.7912C9.60405 20.8215 9.62675 20.8442 9.64946 20.8669C9.67217 20.8896 9.70245 20.9048 9.73273 20.9123C9.763 20.9199 9.79328 20.9199 9.83113 20.9199Z" fill="#25A25F"/>
<path d="M11.0801 20.8593L10.9665 20.3295L10.7319 20.935L10.5426 20.9805L10.361 20.163L10.5426 20.1251L10.6562 20.655L10.8908 20.0494L11.0801 20.004L11.2617 20.8215L11.0801 20.8593ZM10.7016 20.0419C10.6562 20.0494 10.6183 20.057 10.5881 20.0494C10.5578 20.0419 10.5351 20.0343 10.5275 20.0267L10.4972 19.8829C10.5199 19.898 10.5426 19.9056 10.5729 19.9132C10.6032 19.9207 10.641 19.9207 10.6789 19.9132C10.7167 19.9056 10.747 19.8905 10.7773 19.8753C10.8 19.8526 10.8227 19.8375 10.8379 19.8148L10.8681 19.9586C10.8606 19.9737 10.8454 19.9813 10.8227 20.004C10.7849 20.0191 10.747 20.0343 10.7016 20.0419Z" fill="#25A25F"/>
<path d="M12.0717 20.5793L11.9051 20.0646L11.7235 20.6852L11.5342 20.7458L11.2769 19.951L11.4585 19.8905L11.6251 20.4052L11.8067 19.7845L11.996 19.7239L12.2533 20.5187L12.0717 20.5793Z" fill="#25A25F"/>
<path d="M12.8967 19.9056L12.5712 20.0419L12.6999 20.3446L12.5258 20.4203L12.2003 19.6482L12.3744 19.5725L12.5031 19.8829L12.8286 19.7466L12.6999 19.4363L12.874 19.3606L13.1995 20.1327L13.0254 20.2084L12.8967 19.9056Z" fill="#25A25F"/>
<path d="M13.0632 19.2698L13.366 19.1108C13.4039 19.0881 13.4493 19.073 13.4796 19.073C13.5174 19.0654 13.5477 19.0654 13.578 19.0805C13.6082 19.0881 13.6309 19.1032 13.6537 19.1184C13.6764 19.1411 13.6915 19.1638 13.7066 19.1865C13.7218 19.2168 13.7294 19.2546 13.7294 19.2849C13.7294 19.3152 13.7142 19.353 13.6915 19.3833C13.7445 19.3757 13.7899 19.3757 13.8353 19.3909C13.8732 19.406 13.9034 19.4363 13.9337 19.4817C13.9489 19.512 13.9564 19.5423 13.964 19.5725C13.964 19.6028 13.964 19.6331 13.9489 19.6634C13.9337 19.6937 13.9186 19.7239 13.8883 19.7542C13.858 19.7845 13.8278 19.8072 13.7823 19.8299L13.4493 20.004L13.0632 19.2698ZM13.3055 19.3228L13.3887 19.4741L13.5174 19.406C13.5477 19.3909 13.5628 19.3757 13.5704 19.353C13.578 19.3303 13.578 19.3076 13.5628 19.2849C13.5477 19.2622 13.5325 19.2471 13.5098 19.2395C13.4871 19.2319 13.4644 19.2395 13.4341 19.2546L13.3055 19.3228ZM13.4644 19.618L13.5477 19.7769L13.7066 19.6937C13.7369 19.6785 13.7596 19.6558 13.7672 19.6331C13.7748 19.6104 13.7748 19.5877 13.7672 19.565C13.7521 19.5423 13.7369 19.5271 13.7066 19.5196C13.6839 19.512 13.6537 19.5196 13.6158 19.5347L13.4644 19.618Z" fill="#25A25F"/>
<path d="M13.805 18.861L14.3198 18.528L14.4106 18.6718L14.0548 18.8989L14.1381 19.0351L14.4711 18.8232L14.562 18.967L14.2289 19.1789L14.3198 19.3228L14.6755 19.0957L14.7664 19.2395L14.2516 19.5725L13.805 18.861Z" fill="#25A25F"/>
<path d="M14.8875 18.3085C14.8572 18.3312 14.8345 18.3539 14.8193 18.3842C14.8042 18.4144 14.7966 18.4447 14.7891 18.475C14.7891 18.5053 14.7891 18.5431 14.7966 18.5734C14.8042 18.6037 14.8193 18.6339 14.842 18.6642C14.8648 18.6945 14.8875 18.7172 14.9177 18.7324C14.948 18.7475 14.9783 18.7626 15.0086 18.7626C15.0389 18.7702 15.0767 18.7626 15.107 18.7551C15.1373 18.7475 15.1675 18.7324 15.1978 18.7096C15.2357 18.6794 15.2659 18.6415 15.2811 18.5961C15.2962 18.5507 15.3038 18.5053 15.2962 18.4599L15.4779 18.4523C15.4854 18.528 15.4779 18.6037 15.4552 18.6718C15.4325 18.7399 15.387 18.8005 15.3189 18.8535C15.2659 18.8913 15.2129 18.9216 15.16 18.9367C15.0994 18.9519 15.0464 18.9594 14.9934 18.9519C14.9404 18.9443 14.8799 18.9292 14.8345 18.8989C14.7815 18.8686 14.7361 18.8308 14.6982 18.7853C14.6604 18.7399 14.6377 18.6869 14.6225 18.6339C14.6074 18.581 14.6074 18.5204 14.6074 18.4674C14.615 18.4144 14.6301 18.3615 14.6604 18.3085C14.6907 18.2555 14.7285 18.2101 14.7815 18.1722C14.8496 18.1192 14.9177 18.089 14.9859 18.0738C15.054 18.0587 15.1297 18.0738 15.2054 18.1041L15.1524 18.2782C15.107 18.2631 15.0616 18.2555 15.0161 18.2555C14.9707 18.2555 14.9329 18.2782 14.8875 18.3085Z" fill="#25A25F"/>
<path d="M15.9547 18.3085L15.5082 17.8165L15.3265 17.983L15.2129 17.8543L15.7201 17.3926L15.8336 17.5213L15.652 17.6878L16.0986 18.1798L15.9547 18.3085Z" fill="#25A25F"/>
<path d="M28.2106 9.28897H25.727L25.2653 10.4247C25.2528 10.4621 25.2278 10.4996 25.2153 10.537C25.2029 10.5745 25.1779 10.6244 25.1654 10.6618C25.128 10.7367 25.103 10.8241 25.0656 10.9239C25.0406 11.0237 25.0157 11.1361 25.0157 11.2484C25.0157 11.4231 25.0656 11.5604 25.1529 11.6602C25.2403 11.7601 25.465 11.8225 25.8269 11.8475V12.0971H23.6678V11.8475C23.8924 11.835 24.0921 11.7476 24.2544 11.6103C24.4166 11.4606 24.5414 11.3108 24.6288 11.1361C24.6412 11.1111 24.6662 11.0862 24.6787 11.0612C24.6912 11.0362 24.7036 11.0113 24.7161 10.9863L27.5242 3.78513H27.7489L30.6443 11.8475H31.5055V12.0971H28.011V11.8475H29.1467L28.2106 9.28897ZM27.025 5.88183L25.777 9.02689H28.1108L27.025 5.88183Z" fill="#25A25F"/>
<path d="M39.131 9.3389L39.0311 12.1095H38.7066C38.7066 12.0846 38.7066 12.0471 38.6942 12.0097C38.6817 11.9723 38.6692 11.9223 38.6567 11.8849C38.6318 11.81 38.5943 11.7476 38.5319 11.6852C38.482 11.6353 38.3946 11.5978 38.2948 11.5978C38.2074 11.5978 38.1201 11.6228 38.0327 11.6602C37.9453 11.6977 37.858 11.7476 37.7581 11.81C37.7207 11.835 37.6708 11.8599 37.6084 11.8974C37.546 11.9348 37.4711 11.9598 37.3962 11.9972C37.2464 12.0596 37.0717 12.1095 36.872 12.1595C36.6599 12.2094 36.4227 12.2343 36.1606 12.2343C35.2246 12.2343 34.4384 11.8849 33.7769 11.1985C33.1154 10.4996 32.7535 9.60099 32.6786 8.49023C32.6786 8.42783 32.6786 8.35295 32.6661 8.29054C32.6661 8.22814 32.6537 8.15326 32.6537 8.09086C32.6537 8.02846 32.6537 7.95358 32.6661 7.89117C32.6661 7.82877 32.6786 7.75389 32.6786 7.69149C32.7535 6.56825 33.1279 5.60726 33.8143 4.83348C34.4883 4.0597 35.3619 3.66032 36.4227 3.66032C36.6349 3.66032 36.8221 3.68528 36.9968 3.72272C37.1716 3.76016 37.3213 3.81009 37.4586 3.84753C37.5959 3.89745 37.7207 3.94737 37.833 3.98481C37.9453 4.02225 38.0452 4.04721 38.1201 4.04721C38.1575 4.04721 38.1949 4.04721 38.2324 4.03473C38.2698 4.03473 38.3198 4.00977 38.3697 3.98481C38.4196 3.95985 38.4695 3.92241 38.507 3.87249C38.5444 3.82257 38.5818 3.74769 38.6193 3.64784H38.9188L38.9438 6.35608H38.6692C38.5818 5.61974 38.3821 5.02069 38.0826 4.57139C37.7706 4.1221 37.2464 3.89745 36.4976 3.89745C36.3728 3.89745 36.248 3.90993 36.1107 3.93489C35.9734 3.95985 35.8237 4.00977 35.6739 4.07218C35.3245 4.22194 35.0124 4.53395 34.7254 4.99572C34.4384 5.4575 34.2886 6.16888 34.2886 7.12987V9.18913C34.2886 9.96292 34.4134 10.562 34.6755 10.9489C34.9376 11.3482 35.2246 11.6228 35.5366 11.7726C35.7113 11.8599 35.8861 11.9223 36.0483 11.9598C36.2106 11.9847 36.3603 12.0097 36.4727 12.0097C36.5475 12.0097 36.6224 12.0097 36.7098 11.9972C36.7847 11.9847 36.872 11.9723 36.9594 11.9598C37.3463 11.8599 37.7207 11.6103 38.0826 11.2234C38.4321 10.8365 38.6942 10.2125 38.8564 9.3389H39.131Z" fill="#25A25F"/>
<path d="M47.3556 4.87092V4.04721H46.457V3.79761H49.7518V4.04721H48.7784V11.8599H49.7518V12.1095H46.457V11.8599H47.3431V5.3327L43.599 11.161V11.8599H44.4851V12.1095H41.1903V11.8599H42.1638V4.04721H41.1903V3.79761H44.4851V4.04721H43.599V10.6369L47.3556 4.87092Z" fill="#25A25F"/>
<path d="M32.0234 14.7928V16.4527H31.5492V14.356H32.9969V14.7928H32.0234Z" fill="#25A25F"/>
<path d="M33.9205 15.8661V16.4527H33.4462V14.356H34.3448C34.4571 14.356 34.5695 14.381 34.6568 14.4184C34.7442 14.4559 34.8315 14.5058 34.8939 14.5807C34.9563 14.6431 35.0063 14.7304 35.0437 14.8178C35.0811 14.9051 35.0936 15.005 35.0936 15.1048C35.0936 15.2172 35.0811 15.317 35.0437 15.4044C35.0063 15.4917 34.9563 15.5791 34.8939 15.654C34.8315 15.7289 34.7442 15.7788 34.6443 15.8162C34.5445 15.8537 34.4322 15.8786 34.3198 15.8786H33.9205V15.8661ZM33.9205 14.7928V15.4293H34.2949C34.3947 15.4293 34.4821 15.4044 34.532 15.342C34.5944 15.2796 34.6194 15.2047 34.6194 15.1048C34.6194 15.005 34.5944 14.9301 34.532 14.8802C34.4696 14.8178 34.3947 14.7928 34.2824 14.7928H33.9205Z" fill="#25A25F"/>
<path d="M36.3292 16.4527H35.8549L36.1545 15.7913L35.3807 14.356H35.9049L36.3791 15.2796L36.8034 14.356H37.2902L36.3292 16.4527Z" fill="#25A25F"/>
<path d="M39.0249 16.4527V14.7928H38.1638V16.4527H37.6896V14.356H39.4867V16.4527H39.0249Z" fill="#25A25F"/>
<path d="M41.4087 16.4527V14.7928H40.5475V16.4527H40.0733V14.356H41.8704V16.4527H41.4087Z" fill="#25A25F"/>
</svg>
