<svg width="12" height="12" viewBox="0 0 12 12" fill="none" xmlns="http://www.w3.org/2000/svg">
<path d="M6.00016 7.16634L1.91683 11.2497C1.76405 11.4025 1.56961 11.4788 1.3335 11.4788C1.09738 11.4788 0.902941 11.4025 0.750163 11.2497C0.597385 11.0969 0.520996 10.9025 0.520996 10.6663C0.520996 10.4302 0.597385 10.2358 0.750163 10.083L4.8335 5.99967L0.750163 1.91634C0.597385 1.76356 0.520996 1.56912 0.520996 1.33301C0.520996 1.0969 0.597385 0.902452 0.750163 0.749674C0.902941 0.596897 1.09738 0.520508 1.3335 0.520508C1.56961 0.520508 1.76405 0.596897 1.91683 0.749674L6.00016 4.83301L10.0835 0.749674C10.2363 0.596897 10.4307 0.520508 10.6668 0.520508C10.9029 0.520508 11.0974 0.596897 11.2502 0.749674C11.4029 0.902452 11.4793 1.0969 11.4793 1.33301C11.4793 1.56912 11.4029 1.76356 11.2502 1.91634L7.16683 5.99967L11.2502 10.083C11.4029 10.2358 11.4793 10.4302 11.4793 10.6663C11.4793 10.9025 11.4029 11.0969 11.2502 11.2497C11.0974 11.4025 10.9029 11.4788 10.6668 11.4788C10.4307 11.4788 10.2363 11.4025 10.0835 11.2497L6.00016 7.16634Z" fill="#6F77FE"/>
</svg>
