<svg width="288" height="184" viewBox="0 0 288 184" fill="none" xmlns="http://www.w3.org/2000/svg">
<rect width="288" height="183.222" rx="8" fill="#FAFAFA"/>
<path d="M165.333 83.6113C164.578 83.6113 163.944 83.3558 163.433 82.8447C162.922 82.3335 162.667 81.7002 162.667 80.9447C162.667 80.1891 162.922 79.5558 163.433 79.0447C163.944 78.5335 164.578 78.278 165.333 78.278C166.089 78.278 166.722 78.5335 167.233 79.0447C167.744 79.5558 168 80.1891 168 80.9447C168 81.7002 167.744 82.3335 167.233 82.8447C166.722 83.3558 166.089 83.6113 165.333 83.6113ZM165.333 94.278C164.578 94.278 163.944 94.0224 163.433 93.5113C162.922 93.0002 162.667 92.3669 162.667 91.6113C162.667 90.8558 162.922 90.2224 163.433 89.7113C163.944 89.2002 164.578 88.9447 165.333 88.9447C166.089 88.9447 166.722 89.2002 167.233 89.7113C167.744 90.2224 168 90.8558 168 91.6113C168 92.3669 167.744 93.0002 167.233 93.5113C166.722 94.0224 166.089 94.278 165.333 94.278ZM165.333 104.945C164.578 104.945 163.944 104.689 163.433 104.178C162.922 103.667 162.667 103.034 162.667 102.278C162.667 101.522 162.922 100.889 163.433 100.378C163.944 99.8669 164.578 99.6113 165.333 99.6113C166.089 99.6113 166.722 99.8669 167.233 100.378C167.744 100.889 168 101.522 168 102.278C168 103.034 167.744 103.667 167.233 104.178C166.722 104.689 166.089 104.945 165.333 104.945ZM133.333 115.611C132.578 115.611 131.944 115.356 131.433 114.845C130.922 114.334 130.667 113.7 130.667 112.945C130.667 112.189 130.922 111.556 131.433 111.045C131.944 110.534 132.578 110.278 133.333 110.278C134.089 110.278 134.722 110.534 135.233 111.045C135.744 111.556 136 112.189 136 112.945C136 113.7 135.744 114.334 135.233 114.845C134.722 115.356 134.089 115.611 133.333 115.611ZM144 115.611C143.244 115.611 142.611 115.356 142.1 114.845C141.589 114.334 141.333 113.7 141.333 112.945C141.333 112.189 141.589 111.556 142.1 111.045C142.611 110.534 143.244 110.278 144 110.278C144.756 110.278 145.389 110.534 145.9 111.045C146.411 111.556 146.667 112.189 146.667 112.945C146.667 113.7 146.411 114.334 145.9 114.845C145.389 115.356 144.756 115.611 144 115.611ZM154.667 115.611C153.911 115.611 153.278 115.356 152.767 114.845C152.256 114.334 152 113.7 152 112.945C152 112.189 152.256 111.556 152.767 111.045C153.278 110.534 153.911 110.278 154.667 110.278C155.422 110.278 156.056 110.534 156.567 111.045C157.078 111.556 157.333 112.189 157.333 112.945C157.333 113.7 157.078 114.334 156.567 114.845C156.056 115.356 155.422 115.611 154.667 115.611ZM165.333 115.611C164.578 115.611 163.944 115.356 163.433 114.845C162.922 114.334 162.667 113.7 162.667 112.945C162.667 112.189 162.922 111.556 163.433 111.045C163.944 110.534 164.578 110.278 165.333 110.278C166.089 110.278 166.722 110.534 167.233 111.045C167.744 111.556 168 112.189 168 112.945C168 113.7 167.744 114.334 167.233 114.845C166.722 115.356 166.089 115.611 165.333 115.611ZM120 112.945V72.9447C120 71.478 120.522 70.2224 121.567 69.178C122.611 68.1336 123.867 67.6113 125.333 67.6113H165.333C166.089 67.6113 166.722 67.8669 167.233 68.378C167.744 68.8891 168 69.5224 168 70.278C168 71.0336 167.744 71.6669 167.233 72.178C166.722 72.6891 166.089 72.9447 165.333 72.9447H125.333V112.945C125.333 113.7 125.078 114.334 124.567 114.845C124.056 115.356 123.422 115.611 122.667 115.611C121.911 115.611 121.278 115.356 120.767 114.845C120.256 114.334 120 113.7 120 112.945Z" fill="#DDDDE3"/>
</svg>
