<svg width="103" height="48" viewBox="0 0 103 48" fill="none" xmlns="http://www.w3.org/2000/svg">
<path d="M89.5343 15.9045C87.6882 15.9045 86.1905 17.3595 86.1905 19.1542C86.1905 20.9489 87.6882 22.4037 89.5343 22.4037H95.8572V31.797H102.545V15.9045H89.5343ZM26.8187 22.2751H33.4426C32.923 20.8493 31.6781 19.907 30.1543 19.907C28.548 19.907 27.3546 20.8885 26.8187 22.2751ZM39.7152 24.5833L26.537 24.5835C26.7549 26.6477 28.1341 28.093 30.1543 28.093C31.6623 28.093 32.8153 27.2471 33.3742 26.0505H39.7152C39.0438 29.4524 35.4437 32.7354 30.2084 32.7354C24.3535 32.7354 20.524 29.0592 20.524 24.0001C20.524 19.2531 24.324 15.2646 30.2084 15.2646C36.4884 15.2646 39.8231 19.9126 39.7152 24.5833ZM9.62897 28.093C7.42327 28.093 5.98059 26.3706 5.98059 24.0001C5.98059 21.7758 7.41214 19.907 9.62897 19.907C11.2007 19.907 12.4783 20.9081 12.967 22.4096H19.0384C18.4422 18.2243 14.5993 15.2646 9.68441 15.2646C3.7999 15.2646 0 19.2531 0 24.0001C0 29.0592 3.82946 32.7354 9.68441 32.7354C15.1286 32.7354 18.8344 29.3976 19.1911 25.3756H13.0909C12.6929 26.9168 11.4075 28.093 9.62897 28.093ZM78.5693 26.0827C78.5693 25.0847 77.7371 24.2757 76.7101 24.2757H72.754V27.8896H76.7101C77.7371 27.8896 78.5693 27.0806 78.5693 26.0827ZM84.1799 26.1692C84.1799 29.2773 81.5866 31.797 78.3883 31.797H66.9703V15.9045H72.754V20.5414H78.3883C81.5866 20.5414 84.1799 23.061 84.1799 26.1692ZM58.1974 15.9045L52.9206 23.2569L47.6454 15.9045H41.8622V31.797H47.6454V23.0701L52.0638 29.2484H53.9326L58.1974 23.1873V31.797H63.9805V15.9045H58.1974ZM86.1905 24.6146H93.4891V31.797H86.1905V24.6146Z" fill="#3C3D48"/>
</svg>
