<svg width="22" height="22" viewBox="0 0 22 22" fill="none" xmlns="http://www.w3.org/2000/svg">
<path d="M12.1667 21.5V19.1667H14.5V21.5H12.1667ZM9.83333 19.1667V13.3333H12.1667V19.1667H9.83333ZM19.1667 15.6667V11H21.5V15.6667H19.1667ZM16.8333 11V8.66667H19.1667V11H16.8333ZM2.83333 13.3333V11H5.16667V13.3333H2.83333ZM0.5 11V8.66667H2.83333V11H0.5ZM11 2.83333V0.5H13.3333V2.83333H11ZM2.25 5.75H5.75V2.25H2.25V5.75ZM0.5 6.33333V1.66667C0.5 1.33611 0.611806 1.05903 0.835417 0.835417C1.05903 0.611806 1.33611 0.5 1.66667 0.5H6.33333C6.66389 0.5 6.94097 0.611806 7.16458 0.835417C7.3882 1.05903 7.5 1.33611 7.5 1.66667V6.33333C7.5 6.66389 7.3882 6.94097 7.16458 7.16458C6.94097 7.38819 6.66389 7.5 6.33333 7.5H1.66667C1.33611 7.5 1.05903 7.38819 0.835417 7.16458C0.611806 6.94097 0.5 6.66389 0.5 6.33333ZM2.25 19.75H5.75V16.25H2.25V19.75ZM0.5 20.3333V15.6667C0.5 15.3361 0.611806 15.059 0.835417 14.8354C1.05903 14.6118 1.33611 14.5 1.66667 14.5H6.33333C6.66389 14.5 6.94097 14.6118 7.16458 14.8354C7.3882 15.059 7.5 15.3361 7.5 15.6667V20.3333C7.5 20.6639 7.3882 20.941 7.16458 21.1646C6.94097 21.3882 6.66389 21.5 6.33333 21.5H1.66667C1.33611 21.5 1.05903 21.3882 0.835417 21.1646C0.611806 20.941 0.5 20.6639 0.5 20.3333ZM16.25 5.75H19.75V2.25H16.25V5.75ZM14.5 6.33333V1.66667C14.5 1.33611 14.6118 1.05903 14.8354 0.835417C15.059 0.611806 15.3361 0.5 15.6667 0.5H20.3333C20.6639 0.5 20.941 0.611806 21.1646 0.835417C21.3882 1.05903 21.5 1.33611 21.5 1.66667V6.33333C21.5 6.66389 21.3882 6.94097 21.1646 7.16458C20.941 7.38819 20.6639 7.5 20.3333 7.5H15.6667C15.3361 7.5 15.059 7.38819 14.8354 7.16458C14.6118 6.94097 14.5 6.66389 14.5 6.33333ZM16.8333 21.5V18H14.5V15.6667H19.1667V19.1667H21.5V21.5H16.8333ZM12.1667 13.3333V11H16.8333V13.3333H12.1667ZM7.5 13.3333V11H5.16667V8.66667H12.1667V11H9.83333V13.3333H7.5ZM8.66667 7.5V2.83333H11V5.16667H13.3333V7.5H8.66667ZM3.125 4.875V3.125H4.875V4.875H3.125ZM3.125 18.875V17.125H4.875V18.875H3.125ZM17.125 4.875V3.125H18.875V4.875H17.125Z" fill="#B7B8C3"/>
</svg>
