<svg width="66" height="48" viewBox="0 0 66 48" fill="none" xmlns="http://www.w3.org/2000/svg">
<path d="M6.12421 26.4568V8.76465H0C0.151215 16.5522 0.302431 24.3398 6.12421 26.4568Z" fill="#3C3D48"/>
<path d="M28.0504 8.76465H21.9262C21.5482 14.284 22.7579 21.3911 21.3214 25.852C18.9019 21.1643 17.0117 15.9474 17.0873 8.76465H10.9631C11.0387 13.3767 11.6436 17.4595 12.7777 20.9375C7.25836 23.5837 6.6535 31.1445 6.6535 39.2345H12.7777C13.1557 33.5639 11.946 26.23 13.3826 21.5423C15.7264 26.5324 17.6922 31.825 17.6166 39.2345H23.7408C23.7408 34.7736 22.9847 31.0689 21.9262 27.6665C26.4627 23.8106 28.5797 17.6107 28.0504 8.76465Z" fill="#3C3D48"/>
<path d="M35.0102 32.6567L36.5979 26.9861H36.6735L38.1857 32.6567H35.0102ZM28.1299 39.2345H33.1956L33.9517 36.5883H39.1686L39.8491 39.2345H45.1416L39.1686 20.9375H34.1785L28.1299 39.2345Z" fill="#3C3D48"/>
<path d="M46.2001 39.2345H51.3414V32.2786H57.8437V27.8934H51.3414V25.6252H58.9778V20.9375H46.2001V39.2345Z" fill="#3C3D48"/>
<path d="M65.8581 20.9375H60.7924V39.2345H65.8581V20.9375Z" fill="#3C3D48"/>
</svg>
