<svg width="24" height="24" viewBox="0 0 24 24" fill="none" xmlns="http://www.w3.org/2000/svg">
<path d="M10.6291 23.6663C10.1041 23.6663 9.65206 23.4913 9.27289 23.1413C8.89373 22.7913 8.66525 22.3636 8.58748 21.858L8.32498 19.933C8.0722 19.8358 7.834 19.7191 7.61039 19.583C7.38678 19.4469 7.16803 19.3011 6.95414 19.1455L5.14581 19.9038C4.6597 20.1177 4.17359 20.1372 3.68748 19.9622C3.20137 19.7872 2.8222 19.4761 2.54998 19.0288L1.17914 16.6372C0.906922 16.19 0.829144 15.7136 0.945811 15.208C1.06248 14.7025 1.32498 14.2844 1.73331 13.9538L3.27914 12.7872C3.2597 12.6511 3.24998 12.5198 3.24998 12.3934V11.6059C3.24998 11.4795 3.2597 11.3483 3.27914 11.2122L1.73331 10.0455C1.32498 9.71495 1.06248 9.2969 0.945811 8.79134C0.829144 8.28579 0.906922 7.8094 1.17914 7.36217L2.54998 4.97051C2.8222 4.52329 3.20137 4.21217 3.68748 4.03717C4.17359 3.86217 4.6597 3.88162 5.14581 4.09551L6.95414 4.85384C7.16803 4.69829 7.39164 4.55245 7.62498 4.41634C7.85831 4.28023 8.09164 4.16356 8.32498 4.06634L8.58748 2.14134C8.66525 1.63579 8.89373 1.20801 9.27289 0.858008C9.65206 0.508008 10.1041 0.333008 10.6291 0.333008H13.3708C13.8958 0.333008 14.3479 0.508008 14.7271 0.858008C15.1062 1.20801 15.3347 1.63579 15.4125 2.14134L15.675 4.06634C15.9278 4.16356 16.1659 4.28023 16.3896 4.41634C16.6132 4.55245 16.8319 4.69829 17.0458 4.85384L18.8541 4.09551C19.3403 3.88162 19.8264 3.86217 20.3125 4.03717C20.7986 4.21217 21.1778 4.52329 21.45 4.97051L22.8208 7.36217C23.093 7.8094 23.1708 8.28579 23.0541 8.79134C22.9375 9.2969 22.675 9.71495 22.2666 10.0455L20.7208 11.2122C20.7403 11.3483 20.75 11.4795 20.75 11.6059V12.3934C20.75 12.5198 20.7305 12.6511 20.6916 12.7872L22.2375 13.9538C22.6458 14.2844 22.9083 14.7025 23.025 15.208C23.1416 15.7136 23.0639 16.19 22.7916 16.6372L21.3916 19.0288C21.1194 19.4761 20.7403 19.7872 20.2541 19.9622C19.768 20.1372 19.2819 20.1177 18.7958 19.9038L17.0458 19.1455C16.8319 19.3011 16.6083 19.4469 16.375 19.583C16.1416 19.7191 15.9083 19.8358 15.675 19.933L15.4125 21.858C15.3347 22.3636 15.1062 22.7913 14.7271 23.1413C14.3479 23.4913 13.8958 23.6663 13.3708 23.6663H10.6291ZM12.0583 16.083C13.1861 16.083 14.1486 15.6844 14.9458 14.8872C15.743 14.09 16.1416 13.1275 16.1416 11.9997C16.1416 10.8719 15.743 9.9094 14.9458 9.11217C14.1486 8.31495 13.1861 7.91634 12.0583 7.91634C10.9111 7.91634 9.94373 8.31495 9.15623 9.11217C8.36873 9.9094 7.97498 10.8719 7.97498 11.9997C7.97498 13.1275 8.36873 14.09 9.15623 14.8872C9.94373 15.6844 10.9111 16.083 12.0583 16.083Z" fill="#B7B8C3"/>
</svg>
