<svg width="24" height="14" viewBox="0 0 24 14" fill="none" xmlns="http://www.w3.org/2000/svg">
<path d="M3.6291 7.0293L8.14994 11.5501C8.36382 11.764 8.47077 12.0362 8.47077 12.3668C8.47077 12.6974 8.36382 12.9696 8.14994 13.1835C7.93605 13.3974 7.66382 13.5043 7.33327 13.5043C7.00271 13.5043 6.73049 13.3974 6.5166 13.1835L1.14993 7.8168C1.03327 7.70013 0.950629 7.57374 0.902018 7.43763C0.853407 7.30152 0.829102 7.15569 0.829102 7.00013C0.829102 6.84457 0.853407 6.69874 0.902018 6.56263C0.950629 6.42652 1.03327 6.30013 1.14993 6.18346L6.5166 0.816797C6.74994 0.583464 7.02702 0.466797 7.34785 0.466797C7.66869 0.466797 7.94577 0.583464 8.1791 0.816797C8.41244 1.05013 8.5291 1.32721 8.5291 1.64805C8.5291 1.96888 8.41244 2.24596 8.1791 2.4793L3.6291 7.0293ZM20.3708 6.97096L15.8499 2.45013C15.636 2.23624 15.5291 1.96402 15.5291 1.63346C15.5291 1.30291 15.636 1.03069 15.8499 0.816797C16.0638 0.602908 16.336 0.495964 16.6666 0.495964C16.9972 0.495964 17.2694 0.602908 17.4833 0.816797L22.8499 6.18346C22.9666 6.30013 23.0492 6.42652 23.0979 6.56263C23.1465 6.69874 23.1708 6.84457 23.1708 7.00013C23.1708 7.15569 23.1465 7.30152 23.0979 7.43763C23.0492 7.57374 22.9666 7.70013 22.8499 7.8168L17.4833 13.1835C17.2499 13.4168 16.9777 13.5286 16.6666 13.5189C16.3555 13.5092 16.0833 13.3876 15.8499 13.1543C15.6166 12.921 15.4999 12.6439 15.4999 12.323C15.4999 12.0022 15.6166 11.7251 15.8499 11.4918L20.3708 6.97096Z" fill="#B7B8C3"/>
</svg>
