<svg width="46" height="10" viewBox="0 0 46 10" fill="none" xmlns="http://www.w3.org/2000/svg">
<path d="M34.0331 0.664498V4.15655H30.1208V0.664498H27.9052V9.33499H30.1208V6.45927H34.0331V9.33499H36.2487V0.664498H34.0331Z" fill="#25A25F"/>
<path d="M24.582 0.664498V4.15655H21.448V0.664498H19.2323V6.45927H24.582V9.33499H26.7977V0.664498H24.582Z" fill="#25A25F"/>
<path d="M8.43508 0.664498H0.0908203V2.96721H3.15477V9.33499H5.37048V2.96721H8.43508V0.664498Z" fill="#25A25F"/>
<path d="M13.7145 0.417969C11.2794 0.417969 9.30585 2.46949 9.30585 4.9994C9.30585 7.52935 11.2794 9.58153 13.7145 9.58153C16.1496 9.58153 18.1239 7.53 18.1239 4.9994C18.1239 2.46883 16.1496 0.417969 13.7145 0.417969ZM13.7145 2.80664C14.1382 2.80122 14.5539 2.92526 14.9088 3.16299C15.2636 3.40072 15.5416 3.74141 15.7074 4.14174C15.8731 4.54207 15.9192 4.98398 15.8398 5.41127C15.7603 5.83856 15.5589 6.23194 15.2611 6.5414C14.9633 6.85086 14.5826 7.06247 14.1674 7.14925C13.7522 7.23604 13.3213 7.19415 12.9293 7.02887C12.5374 6.86358 12.2022 6.58237 11.9663 6.22098C11.7304 5.85963 11.6045 5.43441 11.6046 4.9994C11.602 4.42164 11.8227 3.8664 12.2181 3.45536C12.6137 3.04432 13.1518 2.81104 13.7145 2.80664Z" fill="#25A25F"/>
<path d="M41.4998 0.417969C39.0646 0.417969 37.0911 2.46949 37.0911 4.9994C37.0911 7.52935 39.0646 9.58153 41.4998 9.58153C43.935 9.58153 45.909 7.53 45.909 4.9994C45.909 2.46883 43.935 0.417969 41.4998 0.417969ZM41.4998 2.80664C41.9236 2.80122 42.339 2.92526 42.6941 3.16299C43.0488 3.40072 43.3268 3.74141 43.4925 4.14174C43.6582 4.54207 43.7044 4.98398 43.625 5.41127C43.5456 5.83856 43.344 6.23194 43.0462 6.5414C42.7487 6.85086 42.368 7.06247 41.9526 7.14925C41.5376 7.23604 41.1065 7.19415 40.7144 7.02887C40.3227 6.86358 39.9874 6.58237 39.7515 6.22098C39.5155 5.85963 39.3899 5.43441 39.3899 4.9994C39.3872 4.42164 39.6079 3.8664 40.0035 3.45536C40.399 3.04432 40.937 2.81104 41.4998 2.80664Z" fill="#25A25F"/>
</svg>
