<svg width="52" height="10" viewBox="0 0 52 10" fill="none" xmlns="http://www.w3.org/2000/svg">
<path d="M45.4634 0.951769C44.5404 0.951769 43.7915 1.67924 43.7915 2.5766C43.7915 3.47395 44.5404 4.20138 45.4634 4.20138H48.6249V8.89801H51.969V0.951769H45.4634ZM14.1056 4.13705H17.4176C17.1578 3.42418 16.5353 2.953 15.7734 2.953C14.9703 2.953 14.3736 3.44375 14.1056 4.13705ZM20.5539 5.29118L13.9648 5.29124C14.0737 6.32337 14.7633 7.046 15.7734 7.046C16.5274 7.046 17.104 6.62308 17.3834 6.02475H20.5539C20.2182 7.7257 18.4181 9.36719 15.8005 9.36719C12.873 9.36719 10.9583 7.5291 10.9583 4.99954C10.9583 2.62607 12.8583 0.631836 15.8005 0.631836C18.9405 0.631836 20.6078 2.95582 20.5539 5.29118ZM5.51078 7.046C4.40792 7.046 3.68658 6.18479 3.68658 4.99954C3.68658 3.88741 4.40236 2.953 5.51078 2.953C6.29666 2.953 6.93543 3.45357 7.17978 4.20432H10.2155C9.91737 2.11165 7.99595 0.631836 5.53849 0.631836C2.59624 0.631836 0.696289 2.62607 0.696289 4.99954C0.696289 7.5291 2.61102 9.36719 5.53849 9.36719C8.26061 9.36719 10.1135 7.69832 10.2918 5.68733H7.24173C7.04275 6.45792 6.40005 7.046 5.51078 7.046ZM39.9809 6.04084C39.9809 5.54185 39.5649 5.13735 39.0513 5.13735H37.0733V6.94431H39.0513C39.5649 6.94431 39.9809 6.53981 39.9809 6.04084ZM42.7862 6.08409C42.7862 7.63818 41.4896 8.89801 39.8904 8.89801H34.1815V0.951769H37.0733V3.2702H39.8904C41.4896 3.2702 42.7862 4.53 42.7862 6.08409ZM29.795 0.951769L27.1566 4.62795L24.519 0.951769H21.6274V8.89801H24.519V4.53454L26.7282 7.62369H27.6626L29.795 4.59315V8.89801H32.6866V0.951769H29.795ZM43.7915 5.30679H47.4408V8.89801H43.7915V5.30679Z" fill="#25A25F"/>
</svg>
