<svg width="18" height="15" viewBox="0 0 18 15" fill="none" xmlns="http://www.w3.org/2000/svg">
<path d="M9.00033 14.9372C8.80588 14.9372 8.60797 14.9025 8.40658 14.833C8.20519 14.7636 8.0281 14.6525 7.87533 14.4997L6.43783 13.1872C4.9656 11.84 3.63574 10.5031 2.44824 9.17676C1.26074 7.85037 0.666992 6.38856 0.666992 4.79134C0.666992 3.48579 1.10449 2.39551 1.97949 1.52051C2.85449 0.645508 3.94477 0.208008 5.25033 0.208008C5.98644 0.208008 6.68088 0.364258 7.33366 0.676758C7.98644 0.989258 8.54199 1.41634 9.00033 1.95801C9.45866 1.41634 10.0142 0.989258 10.667 0.676758C11.3198 0.364258 12.0142 0.208008 12.7503 0.208008C14.0559 0.208008 15.1462 0.645508 16.0212 1.52051C16.8962 2.39551 17.3337 3.48579 17.3337 4.79134C17.3337 6.38856 16.7434 7.85384 15.5628 9.18717C14.3823 10.5205 13.042 11.8608 11.542 13.208L10.1253 14.4997C9.97255 14.6525 9.79547 14.7636 9.59408 14.833C9.39269 14.9025 9.19477 14.9372 9.00033 14.9372Z" fill="#6F77FE"/>
</svg>
