<svg width="67" height="24" viewBox="0 0 67 24" fill="none" xmlns="http://www.w3.org/2000/svg">
<path fill-rule="evenodd" clip-rule="evenodd" d="M9.7115 13.0316V1.5C11.1864 4.8578 16.258 6.83491 18.3739 6.63961C16.2464 9.42822 13.1012 11.4654 9.7115 13.0316ZM0.939941 17.2652C8.75959 14.961 14.7907 11.9828 18.407 7.72604V8.37125C15.0224 12.5662 8.99224 16.1796 5.19207 17.2652H0.939941ZM5.51992 14.7228V8.53436C5.80334 8.90528 6.10979 9.23742 6.4328 9.53405V14.3902C6.12836 14.504 5.82395 14.6148 5.51992 14.7228ZM7.13738 14.1216V5.12677C7.65255 5.9883 8.29654 6.69603 9.00709 7.27158V13.3489C8.38859 13.6207 7.76382 13.8778 7.13738 14.1216Z" fill="#B7B8C3"/>
<path fill-rule="evenodd" clip-rule="evenodd" d="M14.9283 17.266H18.4067V12.8469C17.3502 14.4815 16.1447 16.2008 14.9283 17.266ZM8.51074 17.266C12.9065 14.9429 16.1363 12.2539 18.4067 9.125V11.5906C17.589 13.3719 15.0506 16.0667 13.365 17.266H8.51074Z" fill="#B7B8C3"/>
<path d="M21.2354 15.4693V17.2637H21.7138V15.8617H22.5081V15.4693H21.2354ZM24.5178 16.766H24.9412C25.0409 16.7664 25.1263 16.7592 25.1968 16.7457C25.2678 16.7318 25.3264 16.709 25.3727 16.6779C25.4193 16.6472 25.4556 16.6058 25.4823 16.5547C25.5086 16.5033 25.5274 16.4406 25.5382 16.3661C25.5489 16.2915 25.5541 16.2038 25.5537 16.1033C25.5541 15.9865 25.543 15.8876 25.5206 15.8063C25.4982 15.7253 25.4628 15.6599 25.4145 15.6105C25.3659 15.5611 25.3025 15.5247 25.2247 15.5024C25.1466 15.4801 25.0521 15.469 24.9412 15.4693H24.0393V17.2637H24.5178V16.766ZM24.5178 15.8617H24.8455C24.8918 15.8613 24.9292 15.8657 24.958 15.8741C24.9867 15.8828 25.0082 15.8968 25.0234 15.9159C25.0381 15.9351 25.0481 15.9602 25.0537 15.9917C25.0588 16.0236 25.0613 16.0622 25.0608 16.1081C25.0613 16.1655 25.0584 16.2122 25.0529 16.2476C25.0473 16.2827 25.0365 16.3095 25.0214 16.3278C25.0062 16.3462 24.9843 16.3585 24.956 16.3649C24.9277 16.3713 24.8906 16.3741 24.8455 16.3737H24.5178V15.8617ZM26.9581 15.4693L27.5753 16.7756C27.5678 16.7988 27.5598 16.8183 27.5506 16.8338C27.5414 16.849 27.5295 16.8614 27.5151 16.8705C27.5004 16.8793 27.4808 16.8857 27.4569 16.8896C27.433 16.8936 27.4023 16.8952 27.3648 16.8952C27.3325 16.8956 27.3038 16.8944 27.2779 16.8924C27.2519 16.8901 27.2285 16.8857 27.2069 16.8785V17.2661C27.2436 17.272 27.2811 17.2772 27.3194 17.2812C27.3576 17.2852 27.3999 17.2876 27.4461 17.2876C27.5303 17.288 27.6052 17.274 27.6714 17.2466C27.7376 17.219 27.7974 17.1755 27.8509 17.1165C27.9047 17.0571 27.9545 16.9802 28.0012 16.8857L28.6997 15.4693H28.1471L27.8385 16.2397H27.817L27.5012 15.4693H26.9581ZM30.1712 15.4693V17.2637H30.6496V15.8856H31.2741V17.2637H31.7525V15.4693H30.1712ZM33.3555 15.4693V17.2637H33.834V15.8856H34.4584V17.2637H34.9369V15.4693H33.3555ZM37.6261 16.955L37.7193 17.2637H38.2074L37.6619 15.4693H36.9346L36.3963 17.2637H36.894L36.9825 16.955H37.6261ZM37.5279 16.6081H37.0853L37.3031 15.8282H37.3078L37.5279 16.6081ZM42.2986 15.4693H41.8201V17.2637H42.2986V16.5603H42.4422L42.9421 17.2637H43.5353L42.8513 16.3497L43.4829 15.4693H42.9036L42.4422 16.144H42.2986V15.4693ZM45.7652 17.2876C45.8626 17.288 45.9534 17.2824 46.0381 17.2712C46.1224 17.2597 46.1989 17.2401 46.2672 17.2118C46.3355 17.1835 46.394 17.144 46.4431 17.0938C46.4922 17.0436 46.5294 16.9794 46.5556 16.9016C46.5818 16.8242 46.5949 16.7302 46.5953 16.6201V16.1129C46.5949 16.0028 46.5818 15.9092 46.5556 15.8318C46.5294 15.7548 46.4922 15.6914 46.4431 15.6416C46.394 15.5921 46.3355 15.5534 46.2672 15.526C46.1989 15.4984 46.1224 15.4789 46.0381 15.4682C45.9534 15.4574 45.8626 15.4522 45.7652 15.4526C45.6679 15.4522 45.577 15.4574 45.4924 15.4682C45.4081 15.4789 45.3316 15.4984 45.2633 15.526C45.195 15.5534 45.1364 15.5921 45.0874 15.6416C45.0387 15.6914 45.001 15.7548 44.9749 15.8318C44.9487 15.9092 44.9356 16.0028 44.9352 16.1129V16.6201C44.9356 16.7302 44.9487 16.8242 44.9749 16.9016C45.001 16.9794 45.0387 17.0436 45.0874 17.0938C45.1364 17.144 45.195 17.1835 45.2633 17.2118C45.3316 17.2401 45.4081 17.2597 45.4924 17.2712C45.577 17.2824 45.6679 17.288 45.7652 17.2876ZM45.7652 16.8713C45.7034 16.8717 45.6507 16.8685 45.6077 16.8614C45.5644 16.8546 45.5296 16.8406 45.5034 16.8199C45.4768 16.7991 45.458 16.7684 45.4453 16.7282C45.4334 16.6875 45.4277 16.6341 45.4277 16.5675V16.1632C45.4277 16.0966 45.4334 16.0435 45.4453 16.004C45.458 15.9646 45.4768 15.935 45.5034 15.9155C45.5296 15.896 45.5644 15.8832 45.6077 15.8772C45.6507 15.8709 45.7034 15.868 45.7652 15.8689C45.8274 15.868 45.8798 15.8713 45.9231 15.8772C45.9661 15.8836 46.0009 15.8968 46.027 15.9163C46.0536 15.9359 46.0729 15.9658 46.0851 16.0052C46.097 16.0447 46.1031 16.0973 46.1027 16.1632V16.5675C46.1031 16.6341 46.097 16.6875 46.0851 16.7282C46.0729 16.7684 46.0536 16.7991 46.027 16.8199C46.0009 16.8406 45.9661 16.8546 45.9231 16.8614C45.8798 16.8685 45.8274 16.8717 45.7652 16.8713ZM48.1506 15.4693V17.2637H48.6289L48.581 15.888L48.6027 15.8832L49.0547 17.2637H49.4687L49.9187 15.8832L49.94 15.888L49.8921 17.2637H50.3708V15.4693H49.5931L49.2679 16.5962H49.2511L48.9091 15.4693H48.1506ZM51.9736 15.4693V17.2637H52.4522V15.8856H53.0765V17.2637H53.5551V15.4693H51.9736ZM56.2441 16.955L56.3374 17.2637H56.8254L56.2801 15.4693H55.5527L55.0144 17.2637H55.5122L55.6006 16.955H56.2441ZM56.1459 16.6081H55.7037L55.9213 15.8282H55.9258L56.1459 16.6081ZM58.7633 15.4693H58.285V17.2637H58.7633V16.5603H59.3879V17.2637H59.8662V15.4693H59.3879V16.144H58.7633V15.4693ZM61.9239 15.4693H61.4694V17.2637H62.1203L62.6582 16.0818H62.675V17.2637H63.1295V15.4693H62.5003L61.9407 16.6512H61.9239V15.4693ZM65.1872 15.4693H64.7327V17.2637H65.3836L65.9215 16.0818H65.9383V17.2637H66.3928V15.4693H65.7636L65.204 16.6512H65.1872V15.4693ZM65.3046 14.9717H65.1034C65.1034 15.0518 65.1132 15.1165 65.132 15.1651C65.1512 15.2137 65.179 15.2508 65.215 15.276C65.2514 15.3007 65.2952 15.3174 65.3468 15.3258C65.3987 15.3342 65.4568 15.3381 65.5223 15.3378C65.5869 15.3381 65.645 15.3342 65.697 15.3258C65.7481 15.3174 65.7923 15.3007 65.8283 15.276C65.8647 15.2508 65.8925 15.2137 65.9117 15.1651C65.931 15.1165 65.9408 15.0518 65.9408 14.9717H65.7399C65.7403 15.0136 65.7329 15.0463 65.7186 15.0694C65.7039 15.0929 65.681 15.1093 65.6491 15.1185C65.6168 15.128 65.5746 15.1324 65.5223 15.132C65.4699 15.1324 65.4278 15.128 65.3955 15.1185C65.3635 15.1093 65.3402 15.0929 65.3259 15.0694C65.3112 15.0463 65.3042 15.0136 65.3046 14.9717Z" fill="#B7B8C3"/>
<path d="M23.7601 8.78829V9.27073H22.9407C22.7544 9.26946 22.5821 9.27331 22.4212 9.28358C22.2604 9.29376 22.1136 9.31676 21.9784 9.35239C21.8444 9.38814 21.7231 9.44312 21.6146 9.51966C21.5074 9.59494 21.4129 9.69831 21.3326 9.8298C21.3109 9.86555 21.2841 9.91918 21.2521 9.99319C21.2189 10.0672 21.1871 10.1642 21.1551 10.2867C21.1232 10.4092 21.0964 10.5624 21.0747 10.745C21.0543 10.9274 21.0429 11.1458 21.0415 11.3997C21.0415 11.5184 21.0454 11.6473 21.0518 11.7864C21.0594 11.9268 21.0709 12.0685 21.0888 12.2128C21.1053 12.3557 21.1295 12.4922 21.1615 12.6224C21.1921 12.7513 21.2317 12.8649 21.2789 12.9619C21.353 13.1074 21.4423 13.2236 21.5496 13.309C21.6555 13.3933 21.7729 13.4571 21.9018 13.4967C22.0306 13.5376 22.1647 13.5631 22.3051 13.5745C22.4455 13.586 22.5859 13.5911 22.7263 13.5899H23.7601V14.1489H25.4909V13.5899H26.5247C26.665 13.5911 26.8055 13.586 26.9458 13.5745C27.0863 13.5631 27.2203 13.5376 27.3492 13.4967C27.4781 13.4571 27.5955 13.3933 27.7014 13.309C27.8087 13.2236 27.898 13.1074 27.972 12.9619C28.0193 12.8649 28.0588 12.7513 28.0895 12.6224C28.1213 12.4922 28.1456 12.3557 28.1622 12.2128C28.1801 12.0685 28.1928 11.9268 28.1992 11.7864C28.2069 11.6473 28.2094 11.5184 28.2094 11.3997C28.2081 11.1458 28.1979 10.9274 28.1763 10.745C28.1545 10.5624 28.1278 10.4092 28.0958 10.2867C28.0639 10.1642 28.0321 10.0672 28.0001 9.99319C27.9669 9.91918 27.9401 9.86555 27.9184 9.8298C27.838 9.69831 27.7436 9.59494 27.6363 9.51966C27.5278 9.44312 27.4066 9.38814 27.2726 9.35239C27.1373 9.31676 26.9905 9.29376 26.8297 9.28358C26.6689 9.27331 26.4966 9.26946 26.3102 9.27073H25.4909V8.78829H23.7601ZM66.3945 8.78829H64.6636V10.6875H62.7188V8.78829H60.9879V14.1489H62.7188V12.02H64.6636V14.1489H66.3945V8.78829ZM54.1852 14.1489H56.0077L56.429 13.0462H58.3587L58.7801 14.1489H60.6026L58.6193 9.37796C58.5555 9.22995 58.4802 9.1125 58.3935 9.02446C58.3067 8.93634 58.2094 8.8713 58.1051 8.82785C57.9991 8.78571 57.8854 8.75769 57.7667 8.74493C57.6465 8.73216 57.5229 8.72582 57.3941 8.72705C57.1883 8.72705 57.0161 8.74235 56.877 8.77299C56.7379 8.80236 56.6242 8.84573 56.535 8.90316C56.4446 8.95933 56.3717 9.02826 56.3153 9.10869C56.258 9.18781 56.2093 9.27842 56.1688 9.37796L54.1852 14.1489ZM57.3249 10.4654C57.3302 10.4514 57.3364 10.4361 57.3442 10.4182C57.3519 10.4003 57.3609 10.385 57.3695 10.3723C57.3773 10.3582 57.3863 10.3518 57.3941 10.3506C57.4014 10.3518 57.4104 10.3582 57.4182 10.3723C57.4272 10.385 57.4362 10.4003 57.4436 10.4182C57.4513 10.4361 57.4579 10.4514 57.4628 10.4654L57.9455 11.8209H56.8426L57.3249 10.4654ZM51.8611 10.9019C51.8844 10.8304 51.9032 10.7806 51.9212 10.7513C51.938 10.7232 51.9532 10.7092 51.9683 10.7104C51.9851 10.7092 52.0002 10.7194 52.0145 10.7437C52.0284 10.7679 52.0362 10.8151 52.0374 10.8866L51.9761 14.1489H53.7221V9.66902C53.7233 9.60132 53.7172 9.52736 53.7016 9.44435C53.6877 9.36135 53.657 9.27842 53.61 9.19542C53.5625 9.11119 53.4913 9.03465 53.3956 8.96314C53.2982 8.89298 53.1706 8.83677 53.0098 8.7934C52.8491 8.75004 52.6474 8.72832 52.4048 8.72705C52.289 8.72447 52.1651 8.73216 52.035 8.74873C51.9045 8.76403 51.7744 8.8011 51.6467 8.85853C51.5191 8.91466 51.4017 9.004 51.2933 9.12403C51.1861 9.24525 51.0965 9.4086 51.0266 9.61539L50.1613 12.2191C50.156 12.2395 50.1446 12.2676 50.1266 12.3059C50.109 12.3455 50.0885 12.3799 50.0656 12.4131C50.0439 12.445 50.0222 12.4616 50.0002 12.4642C49.9801 12.4616 49.9584 12.445 49.9351 12.4131C49.9122 12.3799 49.8917 12.3455 49.8741 12.3059C49.8574 12.2676 49.8459 12.2395 49.8394 12.2191L48.9742 9.61539C48.9042 9.4086 48.8146 9.24525 48.7074 9.12403C48.6002 9.004 48.4828 8.91466 48.3552 8.85853C48.2276 8.8011 48.0987 8.76403 47.9698 8.74873C47.8393 8.73216 47.7182 8.72447 47.6033 8.72705C47.5562 8.72582 47.4912 8.72832 47.4106 8.73086C47.3292 8.73474 47.2384 8.74493 47.139 8.76146C47.0404 8.77811 46.941 8.80617 46.8416 8.84446C46.7417 8.88279 46.6501 8.93765 46.5671 9.00658C46.4828 9.07551 46.4153 9.16355 46.3654 9.27204C46.3142 9.38053 46.2877 9.51328 46.2864 9.66902V14.1489H48.0247L47.9711 10.8866C47.9711 10.8675 47.9711 10.8445 47.9711 10.8177C47.9723 10.7896 47.9772 10.7653 47.9862 10.7437C47.994 10.7232 48.0091 10.7118 48.0324 10.7104C48.0512 10.7118 48.0705 10.7321 48.0885 10.7692C48.1077 10.8062 48.1241 10.8509 48.1396 10.9019L48.9664 13.4903C48.9958 13.5886 49.0318 13.6805 49.0736 13.7673C49.1145 13.8541 49.1722 13.9307 49.245 13.9971C49.3174 14.0634 49.4143 14.1145 49.5358 14.1527C49.6582 14.1898 49.8128 14.2089 50.0002 14.2101C50.1879 14.2089 50.3438 14.1898 50.4649 14.1527C50.5864 14.1145 50.6833 14.0634 50.7562 13.9971C50.8286 13.9307 50.8862 13.8541 50.9284 13.7673C50.9693 13.6805 51.0049 13.5886 51.0343 13.4903L51.8611 10.9019ZM42.7928 14.1489V10.4654C42.7916 10.4182 42.7944 10.3697 42.7981 10.3198C42.803 10.2701 42.8173 10.2293 42.839 10.1974C42.8758 10.1565 42.9233 10.1336 42.9818 10.1272C43.0407 10.1208 43.0967 10.1183 43.1528 10.1208H45.9023V8.78829H41.9124C41.7808 8.7896 41.6595 8.81509 41.5485 8.8636C41.4375 8.91208 41.3468 8.97467 41.2767 9.04872C41.209 9.12268 41.1592 9.20057 41.1298 9.281C41.0992 9.36135 41.0801 9.44312 41.0724 9.52605C41.0648 9.6077 41.061 9.6894 41.0622 9.76856V14.1489H42.7928ZM34.4149 14.1489H36.2375L36.6587 13.0462H38.5885L39.0097 14.1489H40.8323L38.8489 9.37796C38.785 9.22995 38.7098 9.1125 38.6229 9.02446C38.5362 8.93634 38.4392 8.8713 38.3346 8.82785C38.2286 8.78571 38.115 8.75769 37.9963 8.74493C37.8764 8.73216 37.7526 8.72582 37.6236 8.72705C37.4182 8.72705 37.2458 8.74235 37.1067 8.77299C36.9676 8.80236 36.8539 8.84573 36.7647 8.90316C36.6741 8.95933 36.6013 9.02826 36.5451 9.10869C36.4877 9.18781 36.4392 9.27842 36.3983 9.37796L34.4149 14.1489ZM37.5547 10.4654C37.5598 10.4514 37.5662 10.4361 37.5738 10.4182C37.5815 10.4003 37.5905 10.385 37.5994 10.3723C37.607 10.3582 37.6159 10.3518 37.6236 10.3506C37.6312 10.3518 37.6402 10.3582 37.6479 10.3723C37.6568 10.385 37.6658 10.4003 37.6734 10.4182C37.6811 10.4361 37.6874 10.4514 37.6926 10.4654L38.175 11.8209H37.0723L37.5547 10.4654ZM27.9235 14.1489H29.7614L31.0556 10.6033C31.0607 10.5918 31.0671 10.5765 31.076 10.5561C31.0836 10.5356 31.0939 10.5165 31.1041 10.4998C31.1155 10.4833 31.1271 10.4744 31.1398 10.4731C31.1526 10.4744 31.1641 10.4833 31.1755 10.4998C31.1857 10.5165 31.196 10.5356 31.2036 10.5561C31.2126 10.5765 31.2189 10.5918 31.224 10.6033L32.5182 14.1489H34.3561L32.2962 9.27842C32.2388 9.14952 32.1635 9.04741 32.0677 8.9721C31.9733 8.89809 31.8699 8.84188 31.7588 8.80748C31.6465 8.77172 31.5368 8.75004 31.4283 8.73977C31.3198 8.72959 31.224 8.72582 31.1398 8.72705C31.0556 8.72582 30.9598 8.72959 30.8513 8.73977C30.7428 8.75004 30.6331 8.77172 30.5221 8.80748C30.4098 8.84188 30.3064 8.89809 30.2119 8.9721C30.1162 9.04741 30.0409 9.14952 29.9835 9.27842L27.9235 14.1489ZM23.7601 12.2574H23.607C23.4602 12.2574 23.3376 12.242 23.2419 12.2128C23.1449 12.1834 23.0683 12.1412 23.0096 12.0851C22.9522 12.0289 22.9088 11.9612 22.8794 11.8822C22.8564 11.8209 22.8411 11.7545 22.8309 11.6831C22.822 11.6103 22.8182 11.5286 22.8182 11.4379C22.8182 11.3014 22.8233 11.1929 22.8348 11.1112C22.8463 11.0295 22.8641 10.9658 22.8872 10.9172C22.9241 10.8356 22.9752 10.773 23.0402 10.7271C23.1066 10.6811 23.1832 10.6492 23.27 10.63C23.3555 10.6109 23.4474 10.602 23.5457 10.6033H23.7601V12.2574ZM25.4909 12.2574V10.6033H25.7053C25.8035 10.602 25.8954 10.6109 25.9823 10.63C26.0677 10.6492 26.1443 10.6811 26.2107 10.7271C26.2758 10.773 26.3281 10.8356 26.3638 10.9172C26.3868 10.9658 26.4047 11.0295 26.4162 11.1112C26.4276 11.1929 26.4327 11.3014 26.4327 11.4379C26.4327 11.5286 26.4289 11.6103 26.42 11.6831C26.4098 11.7545 26.3945 11.8209 26.3715 11.8822C26.3421 11.9612 26.2988 12.0289 26.2413 12.0851C26.1839 12.1412 26.106 12.1834 26.0103 12.2128C25.9133 12.242 25.7908 12.2574 25.644 12.2574H25.4909Z" fill="#B7B8C3"/>
</svg>
