<svg width="14" height="15" viewBox="0 0 14 15" fill="none" xmlns="http://www.w3.org/2000/svg">
<path d="M6.00033 13L2.50033 14.5C1.94477 14.7361 1.41699 14.691 0.916992 14.3646C0.416992 14.0382 0.166992 13.5764 0.166992 12.9792V2.16667C0.166992 1.70833 0.330187 1.31597 0.656576 0.989583C0.982964 0.663194 1.37533 0.5 1.83366 0.5H6.00033C6.23644 0.5 6.43435 0.579861 6.59408 0.739583C6.7538 0.899306 6.83366 1.09722 6.83366 1.33333C6.83366 1.56944 6.7538 1.76736 6.59408 1.92708C6.43435 2.08681 6.23644 2.16667 6.00033 2.16667H1.83366V12.9583L6.00033 11.1667L10.167 12.9583V8C10.167 7.76389 10.2469 7.56597 10.4066 7.40625C10.5663 7.24653 10.7642 7.16667 11.0003 7.16667C11.2364 7.16667 11.4344 7.24653 11.5941 7.40625C11.7538 7.56597 11.8337 7.76389 11.8337 8V12.9792C11.8337 13.5764 11.5837 14.0382 11.0837 14.3646C10.5837 14.691 10.0559 14.7361 9.50033 14.5L6.00033 13ZM6.00033 2.16667H1.83366H6.83366H6.00033ZM10.167 3.83333H9.33366C9.09755 3.83333 8.89963 3.75347 8.73991 3.59375C8.58019 3.43403 8.50033 3.23611 8.50033 3C8.50033 2.76389 8.58019 2.56597 8.73991 2.40625C8.89963 2.24653 9.09755 2.16667 9.33366 2.16667H10.167V1.33333C10.167 1.09722 10.2469 0.899306 10.4066 0.739583C10.5663 0.579861 10.7642 0.5 11.0003 0.5C11.2364 0.5 11.4344 0.579861 11.5941 0.739583C11.7538 0.899306 11.8337 1.09722 11.8337 1.33333V2.16667H12.667C12.9031 2.16667 13.101 2.24653 13.2607 2.40625C13.4205 2.56597 13.5003 2.76389 13.5003 3C13.5003 3.23611 13.4205 3.43403 13.2607 3.59375C13.101 3.75347 12.9031 3.83333 12.667 3.83333H11.8337V4.66667C11.8337 4.90278 11.7538 5.10069 11.5941 5.26042C11.4344 5.42014 11.2364 5.5 11.0003 5.5C10.7642 5.5 10.5663 5.42014 10.4066 5.26042C10.2469 5.10069 10.167 4.90278 10.167 4.66667V3.83333Z" fill="#6F77FE"/>
</svg>
