<svg width="26" height="28" viewBox="0 0 26 28" fill="none" xmlns="http://www.w3.org/2000/svg">
<path fill-rule="evenodd" clip-rule="evenodd" d="M0.859482 16.3032V27.0698C0.859482 27.4627 1.17922 27.7812 1.57364 27.7812H16.6022C16.9746 27.7812 17.3323 27.6364 17.599 27.3775L24.7092 20.4754C24.9851 20.2076 25.1407 19.8401 25.1407 19.4563V8.55592C25.1407 8.17542 24.9878 7.81077 24.716 7.54342L17.4794 0.423986C17.2018 0.150854 16.7555 0.150265 16.4772 0.422662L1.28689 15.288C1.01349 15.5556 0.859482 15.9214 0.859482 16.3032ZM16.8769 20.1582L9.83738 20.1581C9.44297 20.1581 9.12324 19.8395 9.12324 19.4466V8.68794C9.12324 8.41764 9.45012 8.28099 9.64373 8.47036L16.7553 15.4262C17.0289 15.6938 17.183 16.0597 17.183 16.4417V19.8533C17.183 20.0217 17.0459 20.1582 16.8769 20.1582ZM17.183 26.044V20.3615C17.183 20.1931 17.32 20.0565 17.489 20.0565H23.3657C23.6406 20.0565 23.7761 20.3895 23.5789 20.5803L17.7022 26.2628C17.5081 26.4504 17.183 26.3134 17.183 26.044Z" fill="white"/>
</svg>
