<svg width="60" height="8" viewBox="0 0 60 8" fill="none" xmlns="http://www.w3.org/2000/svg">
<path d="M3.35026 3.41133C3.83589 2.73327 5.13246 0.909814 5.30198 0.666992H3.77635C3.0158 1.73907 2.2324 2.83864 1.45808 3.92446C1.45808 3.92446 1.45808 0.918977 1.45808 0.666992C0.990775 0.666992 0.596778 0.666992 0.211914 0.666992C0.211914 2.42172 0.211914 4.34597 0.211914 6.08697C0.326494 6.08697 1.15117 6.08697 1.44895 6.08697C1.45354 6.08697 2.59431 4.47425 2.59431 4.47425C2.59431 4.47425 4.4315 6.89788 4.76137 7.33315H6.32822C5.32948 6.01825 4.33987 4.71707 3.35026 3.41133Z" fill="#B7B8C3"/>
<path d="M35.9524 3.41591C35.9524 2.82032 35.9524 0.992281 35.9524 0.666992C35.4851 0.666992 35.0907 0.666992 34.7061 0.666992C34.7061 1.58788 34.7061 2.50419 34.7061 3.41591C34.7061 3.83283 34.7061 4.24517 34.7061 4.66209C34.7061 5.55089 34.7061 6.44429 34.7061 7.33315C35.1507 7.33315 35.5445 7.33315 35.9524 7.33315V4.66209C35.9524 4.66209 38.7379 4.66209 38.9486 4.66209C38.9486 4.19477 38.9486 3.80076 38.9486 3.41591C37.9453 3.41591 36.9513 3.41591 35.9524 3.41591Z" fill="#B7B8C3"/>
<path d="M41.5691 1.91317C41.5691 1.91317 45.555 1.91317 45.8252 1.91317C45.8252 1.44585 45.8252 1.05184 45.8252 0.666992C44.3957 0.666992 40.708 0.666992 40.3277 0.666992C40.3277 1.08391 40.3277 4.24517 40.3277 4.66209C40.7718 4.66209 45.5594 4.66209 45.8252 4.66209C45.8252 4.19477 45.8252 3.80076 45.8252 3.41591C44.3957 3.41591 42.9846 3.41591 41.5691 3.41591C41.5691 3.41591 41.5691 2.1789 41.5691 1.91317Z" fill="#B7B8C3"/>
<path d="M40.3272 7.3333H43.003C43.6858 7.3333 44.3546 7.3333 45.0278 7.3333C45.2936 7.3333 45.5594 7.3333 45.83 7.3333C45.83 6.86599 45.83 6.47199 45.83 6.08713C43.9835 6.08713 42.1602 6.08713 40.332 6.08713C40.3272 6.53153 40.3272 6.92558 40.3272 7.3333Z" fill="#B7B8C3"/>
<path d="M18.8541 0.666992C18.8541 1.58788 18.8541 2.50419 18.8541 3.41591C17.8461 3.41591 16.8474 3.41591 15.8486 3.41591C15.8486 2.82032 15.8486 0.992281 15.8486 0.666992C15.3813 0.666992 14.9873 0.666992 14.6024 0.666992C14.6024 2.90737 14.6024 5.11567 14.6024 7.33315C15.0468 7.33315 15.4409 7.33315 15.8486 7.33315V4.66209C15.8486 4.66209 18.8266 4.66209 18.8541 4.66209C18.8541 5.55089 18.8541 6.44429 18.8541 7.33315C19.2985 7.33315 19.6925 7.33315 20.1002 7.33315V4.09398C20.1002 3.26931 20.1002 0.992281 20.1002 0.666992C19.6329 0.666992 19.2389 0.666992 18.8541 0.666992Z" fill="#B7B8C3"/>
<path d="M51.4513 0.666992C51.4513 1.58788 51.4513 2.50419 51.4513 3.41591C50.4437 3.41591 49.4448 3.41591 48.446 3.41591C48.446 2.82032 48.446 0.992281 48.446 0.666992C47.9786 0.666992 47.5848 0.666992 47.1996 0.666992C47.1996 1.58788 47.1996 6.43975 47.1996 7.33315C47.6442 7.33315 48.0381 7.33315 48.446 7.33315V4.66209C48.446 4.66209 51.4102 4.66209 51.4513 4.66209C51.4513 5.55089 51.4513 6.44429 51.4513 7.33315C51.8959 7.33315 52.2898 7.33315 52.6976 7.33315C52.6976 7.33315 52.6976 0.992281 52.6976 0.666992C52.2303 0.666992 51.8365 0.666992 51.4513 0.666992Z" fill="#B7B8C3"/>
<path d="M10.2593 0.685102C8.15175 0.474351 6.39706 2.23366 6.60321 4.34117C6.75896 5.89889 8.0189 7.16338 9.58117 7.31459C11.6887 7.52534 13.4434 5.76604 13.2372 3.65852C13.0815 2.1008 11.8215 0.836293 10.2593 0.685102ZM10.1951 6.06841C8.82981 6.24253 7.67985 5.09254 7.85397 3.72724C7.97309 2.79719 8.72445 2.04582 9.65448 1.9267C11.0198 1.7526 12.1697 2.90257 11.9957 4.26787C11.8765 5.2025 11.1252 5.95388 10.1951 6.06841Z" fill="#B7B8C3"/>
<path d="M21.4701 0.666992C21.4701 1.1114 21.4701 1.50542 21.4701 1.91317H23.3714C23.3714 3.72746 23.3714 5.52799 23.3714 7.33315C23.816 7.33315 24.2098 7.33315 24.6177 7.33315C24.6177 7.33315 24.6177 2.63706 24.6177 1.91317C25.0072 1.91317 26.2714 1.91317 26.5188 1.91317C26.5188 1.44585 26.5188 1.05184 26.5188 0.666992C25.8823 0.666992 22.107 0.666992 21.4701 0.666992Z" fill="#B7B8C3"/>
<path d="M54.072 0.666992C54.072 1.1114 54.072 1.50542 54.072 1.91317H55.9736C55.9736 3.72746 55.9736 5.52799 55.9736 7.33315C56.4177 7.33315 56.812 7.33315 57.2194 7.33315C57.2194 7.33315 57.2194 2.63706 57.2194 1.91317C57.6089 1.91317 58.8736 1.91317 59.121 1.91317C59.121 1.44585 59.121 1.05184 59.121 0.666992C58.4841 0.666992 54.7089 0.666992 54.072 0.666992Z" fill="#B7B8C3"/>
<path d="M32.0761 0.666992C31.0912 2.23846 30.1155 3.7916 29.1394 5.34933C29.1394 5.34933 29.1394 0.992281 29.1394 0.666992C28.6721 0.666992 28.2782 0.666992 27.8935 0.666992C27.8935 2.90737 27.8935 5.11567 27.8935 7.33315C28.3377 7.33315 29.3641 7.33315 29.3641 7.33315C29.3641 7.33315 31.7741 3.4938 32.0761 3.01274C32.0761 4.05733 32.0761 5.11108 32.0761 6.08697C32.5207 6.08697 32.9146 6.08697 33.3224 6.08697C33.3224 6.08697 33.3224 0.918977 33.3224 0.666992C33.1301 0.666992 32.3052 0.666992 32.0761 0.666992Z" fill="#B7B8C3"/>
</svg>
