<svg width="42" height="42" viewBox="0 0 42 42" fill="none" xmlns="http://www.w3.org/2000/svg">
<rect width="42" height="42" rx="4" fill="#6F77FE"/>
<path fill-rule="evenodd" clip-rule="evenodd" d="M8.85938 23.3032V34.0698C8.85938 34.4627 9.17911 34.7812 9.57353 34.7812H24.6021C24.9745 34.7812 25.3322 34.6364 25.5989 34.3775L32.7091 27.4754C32.985 27.2076 33.1406 26.8401 33.1406 26.4563V15.5559C33.1406 15.1754 32.9877 14.8108 32.7159 14.5434L25.4793 7.42399C25.2017 7.15085 24.7554 7.15026 24.4771 7.42266L9.28679 22.288C9.01338 22.5556 8.85938 22.9214 8.85938 23.3032ZM24.8768 27.1582L17.8373 27.1581C17.4429 27.1581 17.1231 26.8395 17.1231 26.4466V15.6879C17.1231 15.4176 17.45 15.281 17.6436 15.4704L24.7552 22.4262C25.0288 22.6938 25.1829 23.0597 25.1829 23.4417V26.8533C25.1829 27.0217 25.0458 27.1582 24.8768 27.1582ZM25.1829 33.044V27.3615C25.1829 27.1931 25.3199 27.0565 25.4889 27.0565H31.3656C31.6405 27.0565 31.776 27.3895 31.5788 27.5803L25.7021 33.2628C25.508 33.4504 25.1829 33.3134 25.1829 33.044Z" fill="white"/>
</svg>
