<svg width="20" height="21" viewBox="0 0 20 21" fill="none" xmlns="http://www.w3.org/2000/svg">
<path d="M0.666504 18.1668V7.66683C0.666504 7.29739 0.749143 6.94739 0.914421 6.61683C1.0797 6.28627 1.30817 6.01405 1.59984 5.80016L8.59984 0.550163C9.00817 0.239052 9.47484 0.0834961 9.99984 0.0834961C10.5248 0.0834961 10.9915 0.239052 11.3998 0.550163L18.3998 5.80016C18.6915 6.01405 18.92 6.28627 19.0853 6.61683C19.2505 6.94739 19.3332 7.29739 19.3332 7.66683V18.1668C19.3332 18.8085 19.1047 19.3578 18.6478 19.8147C18.1908 20.2717 17.6415 20.5002 16.9998 20.5002H13.4998C13.1693 20.5002 12.8922 20.3884 12.6686 20.1647C12.445 19.9411 12.3332 19.6641 12.3332 19.3335V13.5002C12.3332 13.1696 12.2214 12.8925 11.9978 12.6689C11.7741 12.4453 11.4971 12.3335 11.1665 12.3335H8.83317C8.50261 12.3335 8.22553 12.4453 8.00192 12.6689C7.77831 12.8925 7.6665 13.1696 7.6665 13.5002V19.3335C7.6665 19.6641 7.5547 19.9411 7.33109 20.1647C7.10748 20.3884 6.83039 20.5002 6.49984 20.5002H2.99984C2.35817 20.5002 1.80886 20.2717 1.35192 19.8147C0.894976 19.3578 0.666504 18.8085 0.666504 18.1668Z" fill="#B7B8C3"/>
</svg>
