<svg width="20" height="21" viewBox="0 0 20 21" fill="none" xmlns="http://www.w3.org/2000/svg">
<path d="M0.666668 18.1663V7.66634C0.666668 7.2969 0.749307 6.9469 0.914585 6.61634C1.07986 6.28579 1.30833 6.01356 1.6 5.79967L8.6 0.549675C9.00833 0.238563 9.475 0.0830078 10 0.0830078C10.525 0.0830078 10.9917 0.238563 11.4 0.549675L18.4 5.79967C18.6917 6.01356 18.9201 6.28579 19.0854 6.61634C19.2507 6.9469 19.3333 7.2969 19.3333 7.66634V18.1663C19.3333 18.808 19.1049 19.3573 18.6479 19.8143C18.191 20.2712 17.6417 20.4997 17 20.4997H13.5C13.1694 20.4997 12.8924 20.3879 12.6688 20.1643C12.4451 19.9406 12.3333 19.6636 12.3333 19.333V13.4997C12.3333 13.1691 12.2215 12.892 11.9979 12.6684C11.7743 12.4448 11.4972 12.333 11.1667 12.333H8.83333C8.50278 12.333 8.2257 12.4448 8.00208 12.6684C7.77847 12.892 7.66667 13.1691 7.66667 13.4997V19.333C7.66667 19.6636 7.55486 19.9406 7.33125 20.1643C7.10764 20.3879 6.83056 20.4997 6.5 20.4997H3C2.35833 20.4997 1.80903 20.2712 1.35208 19.8143C0.89514 19.3573 0.666668 18.808 0.666668 18.1663Z" fill="#B7B8C3"/>
</svg>
