<svg width="18" height="18" viewBox="0 0 18 18" fill="none" xmlns="http://www.w3.org/2000/svg">
<path d="M1.3091 5.2381C0.948982 5.2381 0.640698 5.10987 0.384249 4.85342C0.127801 4.59698 -0.000423431 4.28869 -0.000423431 3.92857V1.30952C-0.000423431 0.949405 0.127801 0.641122 0.384249 0.384673C0.640698 0.128225 0.948982 0 1.3091 0H3.92815C4.28827 0 4.59655 0.128225 4.853 0.384673C5.10945 0.641122 5.23767 0.949405 5.23767 1.30952V3.92857C5.23767 4.28869 5.10945 4.59698 4.853 4.85342C4.59655 5.10987 4.28827 5.2381 3.92815 5.2381H1.3091Z" fill="#6F77FE"/>
<path d="M14.071 5.2381C13.7109 5.2381 13.4026 5.10987 13.1462 4.85342C12.8897 4.59698 12.7615 4.28869 12.7615 3.92857V1.30952C12.7615 0.949405 12.8897 0.641122 13.1462 0.384673C13.4026 0.128225 13.7109 0 14.071 0H16.6901C17.0502 0 17.3585 0.128225 17.6149 0.384673C17.8714 0.641122 17.9996 0.949405 17.9996 1.30952V3.92857C17.9996 4.28869 17.8714 4.59698 17.6149 4.85342C17.3585 5.10987 17.0502 5.2381 16.6901 5.2381H14.071Z" fill="#6F77FE"/>
<path d="M7.69008 5.2381C7.32996 5.2381 7.02168 5.10987 6.76523 4.85342C6.50878 4.59698 6.38055 4.28869 6.38055 3.92857V1.30952C6.38055 0.949405 6.50878 0.641122 6.76523 0.384673C7.02168 0.128225 7.32996 0 7.69008 0H10.3091C10.6692 0 10.9775 0.128225 11.234 0.384673C11.4904 0.641122 11.6187 0.949405 11.6187 1.30952V3.92857C11.6187 4.28869 11.4904 4.59698 11.234 4.85342C10.9775 5.10987 10.6692 5.2381 10.3091 5.2381H7.69008Z" fill="#6F77FE"/>
<path d="M7.69008 11.6192C7.32996 11.6192 7.02168 11.491 6.76523 11.2345C6.50878 10.9781 6.38055 10.6698 6.38055 10.3097V7.69061C6.38055 7.33049 6.50878 7.02221 6.76523 6.76576C7.02168 6.50931 7.32996 6.38109 7.69008 6.38109H10.3091C10.6692 6.38109 10.9775 6.50931 11.234 6.76576C11.4904 7.02221 11.6187 7.33049 11.6187 7.69061V10.3097C11.6187 10.6698 11.4904 10.9781 11.234 11.2345C10.9775 11.491 10.6692 11.6192 10.3091 11.6192H7.69008Z" fill="#6F77FE"/>
<path d="M7.69008 18.0003C7.32996 18.0003 7.02168 17.8721 6.76523 17.6157C6.50878 17.3592 6.38055 17.0509 6.38055 16.6908V14.0718C6.38055 13.7116 6.50878 13.4034 6.76523 13.1469C7.02168 12.8905 7.32996 12.7622 7.69008 12.7622H10.3091C10.6692 12.7622 10.9775 12.8905 11.234 13.1469C11.4904 13.4034 11.6187 13.7116 11.6187 14.0718V16.6908C11.6187 17.0509 11.4904 17.3592 11.234 17.6157C10.9775 17.8721 10.6692 18.0003 10.3091 18.0003H7.69008Z" fill="#6F77FE"/>
<path d="M14.071 11.6192C13.7109 11.6192 13.4026 11.491 13.1462 11.2345C12.8897 10.9781 12.7615 10.6698 12.7615 10.3097V7.69061C12.7615 7.33049 12.8897 7.02221 13.1462 6.76576C13.4026 6.50931 13.7109 6.38109 14.071 6.38109H16.6901C17.0502 6.38109 17.3585 6.50931 17.6149 6.76576C17.8714 7.02221 17.9996 7.33049 17.9996 7.69061V10.3097C17.9996 10.6698 17.8714 10.9781 17.6149 11.2345C17.3585 11.491 17.0502 11.6192 16.6901 11.6192H14.071Z" fill="#6F77FE"/>
<path d="M14.071 18.0003C13.7109 18.0003 13.4026 17.8721 13.1462 17.6157C12.8897 17.3592 12.7615 17.0509 12.7615 16.6908V14.0718C12.7615 13.7116 12.8897 13.4034 13.1462 13.1469C13.4026 12.8905 13.7109 12.7622 14.071 12.7622H16.6901C17.0502 12.7622 17.3585 12.8905 17.6149 13.1469C17.8714 13.4034 17.9996 13.7116 17.9996 14.0718V16.6908C17.9996 17.0509 17.8714 17.3592 17.6149 17.6157C17.3585 17.8721 17.0502 18.0003 16.6901 18.0003H14.071Z" fill="#6F77FE"/>
<path d="M1.3091 11.6192C0.948982 11.6192 0.640698 11.491 0.384249 11.2345C0.127801 10.9781 -0.000423431 10.6698 -0.000423431 10.3097V7.69061C-0.000423431 7.33049 0.127801 7.02221 0.384249 6.76576C0.640698 6.50931 0.948982 6.38109 1.3091 6.38109H3.92815C4.28827 6.38109 4.59655 6.50931 4.853 6.76576C5.10945 7.02221 5.23767 7.33049 5.23767 7.69061V10.3097C5.23767 10.6698 5.10945 10.9781 4.853 11.2345C4.59655 11.491 4.28827 11.6192 3.92815 11.6192H1.3091Z" fill="#6F77FE"/>
<path d="M1.3091 18.0003C0.948982 18.0003 0.640698 17.8721 0.384249 17.6157C0.127801 17.3592 -0.000423431 17.0509 -0.000423431 16.6908V14.0718C-0.000423431 13.7116 0.127801 13.4034 0.384249 13.1469C0.640698 12.8905 0.948982 12.7622 1.3091 12.7622H3.92815C4.28827 12.7622 4.59655 12.8905 4.853 13.1469C5.10945 13.4034 5.23767 13.7116 5.23767 14.0718V16.6908C5.23767 17.0509 5.10945 17.3592 4.853 17.6157C4.59655 17.8721 4.28827 18.0003 3.92815 18.0003H1.3091Z" fill="#6F77FE"/>
</svg>
