<svg width="18" height="18" viewBox="0 0 18 18" fill="none" xmlns="http://www.w3.org/2000/svg">
<path d="M1.30904 5.2381C0.948917 5.2381 0.640633 5.10987 0.384185 4.85342C0.127736 4.59698 -0.000488281 4.28869 -0.000488281 3.92857V1.30952C-0.000488281 0.949405 0.127736 0.641122 0.384185 0.384673C0.640633 0.128225 0.948917 0 1.30904 0H3.92808C4.2882 0 4.59649 0.128225 4.85294 0.384673C5.10938 0.641122 5.23761 0.949405 5.23761 1.30952V3.92857C5.23761 4.28869 5.10938 4.59698 4.85294 4.85342C4.59649 5.10987 4.2882 5.2381 3.92808 5.2381H1.30904Z" fill="#6F77FE"/>
<path d="M14.0709 5.2381C13.7108 5.2381 13.4025 5.10987 13.1461 4.85342C12.8896 4.59698 12.7614 4.28869 12.7614 3.92857V1.30952C12.7614 0.949405 12.8896 0.641122 13.1461 0.384673C13.4025 0.128225 13.7108 0 14.0709 0H16.69C17.0501 0 17.3584 0.128225 17.6148 0.384673C17.8713 0.641122 17.9995 0.949405 17.9995 1.30952V3.92857C17.9995 4.28869 17.8713 4.59698 17.6148 4.85342C17.3584 5.10987 17.0501 5.2381 16.69 5.2381H14.0709Z" fill="#6F77FE"/>
<path d="M7.69001 5.2381C7.32989 5.2381 7.02161 5.10987 6.76516 4.85342C6.50871 4.59698 6.38049 4.28869 6.38049 3.92857V1.30952C6.38049 0.949405 6.50871 0.641122 6.76516 0.384673C7.02161 0.128225 7.32989 0 7.69001 0H10.3091C10.6692 0 10.9775 0.128225 11.2339 0.384673C11.4904 0.641122 11.6186 0.949405 11.6186 1.30952V3.92857C11.6186 4.28869 11.4904 4.59698 11.2339 4.85342C10.9775 5.10987 10.6692 5.2381 10.3091 5.2381H7.69001Z" fill="#6F77FE"/>
<path d="M7.69001 11.6192C7.32989 11.6192 7.02161 11.491 6.76516 11.2345C6.50871 10.9781 6.38049 10.6698 6.38049 10.3097V7.69061C6.38049 7.33049 6.50871 7.02221 6.76516 6.76576C7.02161 6.50931 7.32989 6.38109 7.69001 6.38109H10.3091C10.6692 6.38109 10.9775 6.50931 11.2339 6.76576C11.4904 7.02221 11.6186 7.33049 11.6186 7.69061V10.3097C11.6186 10.6698 11.4904 10.9781 11.2339 11.2345C10.9775 11.491 10.6692 11.6192 10.3091 11.6192H7.69001Z" fill="#6F77FE"/>
<path d="M7.69001 18.0003C7.32989 18.0003 7.02161 17.8721 6.76516 17.6157C6.50871 17.3592 6.38049 17.0509 6.38049 16.6908V14.0718C6.38049 13.7116 6.50871 13.4034 6.76516 13.1469C7.02161 12.8905 7.32989 12.7622 7.69001 12.7622H10.3091C10.6692 12.7622 10.9775 12.8905 11.2339 13.1469C11.4904 13.4034 11.6186 13.7116 11.6186 14.0718V16.6908C11.6186 17.0509 11.4904 17.3592 11.2339 17.6157C10.9775 17.8721 10.6692 18.0003 10.3091 18.0003H7.69001Z" fill="#6F77FE"/>
<path d="M14.0709 11.6192C13.7108 11.6192 13.4025 11.491 13.1461 11.2345C12.8896 10.9781 12.7614 10.6698 12.7614 10.3097V7.69061C12.7614 7.33049 12.8896 7.02221 13.1461 6.76576C13.4025 6.50931 13.7108 6.38109 14.0709 6.38109H16.69C17.0501 6.38109 17.3584 6.50931 17.6148 6.76576C17.8713 7.02221 17.9995 7.33049 17.9995 7.69061V10.3097C17.9995 10.6698 17.8713 10.9781 17.6148 11.2345C17.3584 11.491 17.0501 11.6192 16.69 11.6192H14.0709Z" fill="#6F77FE"/>
<path d="M14.0709 18.0003C13.7108 18.0003 13.4025 17.8721 13.1461 17.6157C12.8896 17.3592 12.7614 17.0509 12.7614 16.6908V14.0718C12.7614 13.7116 12.8896 13.4034 13.1461 13.1469C13.4025 12.8905 13.7108 12.7622 14.0709 12.7622H16.69C17.0501 12.7622 17.3584 12.8905 17.6148 13.1469C17.8713 13.4034 17.9995 13.7116 17.9995 14.0718V16.6908C17.9995 17.0509 17.8713 17.3592 17.6148 17.6157C17.3584 17.8721 17.0501 18.0003 16.69 18.0003H14.0709Z" fill="#6F77FE"/>
<path d="M1.30904 11.6192C0.948917 11.6192 0.640633 11.491 0.384185 11.2345C0.127736 10.9781 -0.000488281 10.6698 -0.000488281 10.3097V7.69061C-0.000488281 7.33049 0.127736 7.02221 0.384185 6.76576C0.640633 6.50931 0.948917 6.38109 1.30904 6.38109H3.92808C4.2882 6.38109 4.59649 6.50931 4.85294 6.76576C5.10938 7.02221 5.23761 7.33049 5.23761 7.69061V10.3097C5.23761 10.6698 5.10938 10.9781 4.85294 11.2345C4.59649 11.491 4.2882 11.6192 3.92808 11.6192H1.30904Z" fill="#6F77FE"/>
<path d="M1.30904 18.0003C0.948917 18.0003 0.640633 17.8721 0.384185 17.6157C0.127736 17.3592 -0.000488281 17.0509 -0.000488281 16.6908V14.0718C-0.000488281 13.7116 0.127736 13.4034 0.384185 13.1469C0.640633 12.8905 0.948917 12.7622 1.30904 12.7622H3.92808C4.2882 12.7622 4.59649 12.8905 4.85294 13.1469C5.10938 13.4034 5.23761 13.7116 5.23761 14.0718V16.6908C5.23761 17.0509 5.10938 17.3592 4.85294 17.6157C4.59649 17.8721 4.2882 18.0003 3.92808 18.0003H1.30904Z" fill="#6F77FE"/>
</svg>
