<svg width="24" height="23" viewBox="0 0 24 23" fill="none" xmlns="http://www.w3.org/2000/svg">
<path d="M2.66683 22.5002C2.02516 22.5002 1.47586 22.2717 1.01891 21.8147C0.561968 21.3578 0.333496 20.8085 0.333496 20.1668V7.3335C0.333496 6.69183 0.561968 6.14252 1.01891 5.68558C1.47586 5.22864 2.02516 5.00016 2.66683 5.00016H7.3335V2.66683C7.3335 2.02516 7.56197 1.47586 8.01891 1.01891C8.47586 0.561968 9.02516 0.333496 9.66683 0.333496H14.3335C14.9752 0.333496 15.5245 0.561968 15.9814 1.01891C16.4384 1.47586 16.6668 2.02516 16.6668 2.66683V5.00016H21.3335C21.9752 5.00016 22.5245 5.22864 22.9814 5.68558C23.4384 6.14252 23.6668 6.69183 23.6668 7.3335V20.1668C23.6668 20.8085 23.4384 21.3578 22.9814 21.8147C22.5245 22.2717 21.9752 22.5002 21.3335 22.5002H2.66683ZM9.66683 5.00016H14.3335V2.66683H9.66683V5.00016Z" fill="#B7B8C3"/>
</svg>
