<svg width="67" height="24" viewBox="0 0 67 24" fill="none" xmlns="http://www.w3.org/2000/svg">
<path d="M2.33023 7.32828H4.98364V8.54505H2.33023V7.32828ZM2.16391 5.60449C1.55567 6.21273 1.21469 6.55371 0.606445 7.16195V11.7055H2.33023V10.269H4.98364V11.7055H6.70743V5.60449H2.16391Z" fill="#B7B8C3"/>
<path d="M7.23136 5.60449V11.7055H8.95515V7.32828H11.6086V11.7055H13.3323V7.16196C12.7241 6.55372 12.3831 6.21273 11.7749 5.60449H7.23136Z" fill="#B7B8C3"/>
<path d="M11.6086 16.6719H8.9552V15.4551H11.6086V16.6719ZM11.7749 18.3957C12.3832 17.7874 12.7242 17.4465 13.3324 16.8382V12.2947H11.6086V13.7312H8.9552V12.2947H7.23141V18.3957H11.7749Z" fill="#B7B8C3"/>
<path d="M6.70746 18.3957V12.2947H4.98367V16.6719H2.33026V12.2947H0.606472V16.8382C1.21471 17.4465 1.5557 17.7874 2.16394 18.3957H6.70746Z" fill="#B7B8C3"/>
<path d="M20.2518 8.86377L20.0055 10.545H20.7188L20.4725 8.86377H20.2518ZM19.581 13.4489H17.645L18.8422 7.3354H21.882L23.0792 13.4489H21.1433L20.9225 11.9205H19.8017L19.581 13.4489Z" fill="#B7B8C3"/>
<path d="M23.6148 13.4489V7.3354H27.5716L27.2404 8.86377H25.4743V13.4489H23.6148Z" fill="#B7B8C3"/>
<path d="M30.6635 7.18256C31.105 7.18256 31.5239 7.25615 31.9201 7.40333C32.3221 7.5505 32.673 7.76278 32.973 8.04015C33.2787 8.31752 33.5221 8.65433 33.7033 9.05058C33.8844 9.44682 33.975 9.89401 33.975 10.3922C33.975 10.8903 33.8844 11.3375 33.7033 11.7337C33.5221 12.13 33.2787 12.4668 32.973 12.7442C32.673 13.0215 32.3221 13.2338 31.9201 13.381C31.5239 13.5282 31.105 13.6017 30.6635 13.6017C30.222 13.6017 29.8002 13.5282 29.3983 13.381C29.0021 13.2338 28.6511 13.0215 28.3454 12.7442C28.0454 12.4668 27.8049 12.13 27.6237 11.7337C27.4426 11.3375 27.352 10.8903 27.352 10.3922C27.3577 9.89401 27.4511 9.44682 27.6322 9.05058C27.8133 8.65433 28.0539 8.31752 28.3539 8.04015C28.6596 7.76278 29.0106 7.5505 29.4068 7.40333C29.8031 7.25615 30.222 7.18256 30.6635 7.18256ZM29.3134 10.3922C29.3134 10.6412 29.3502 10.862 29.4238 11.0544C29.5031 11.2412 29.6049 11.3997 29.7295 11.5299C29.854 11.6601 29.9984 11.7592 30.1625 11.8271C30.3267 11.8894 30.4937 11.9205 30.6635 11.9205C30.839 11.9205 31.006 11.8894 31.1645 11.8271C31.3286 11.7592 31.473 11.6601 31.5975 11.5299C31.722 11.3997 31.8211 11.2412 31.8947 11.0544C31.9739 10.862 32.0136 10.6412 32.0136 10.3922C32.0136 10.1431 31.9739 9.92515 31.8947 9.73835C31.8211 9.54588 31.722 9.38455 31.5975 9.25436C31.473 9.12416 31.3286 9.02793 31.1645 8.96567C31.006 8.89774 30.839 8.86377 30.6635 8.86377C30.4937 8.86377 30.3267 8.89774 30.1625 8.96567C29.9984 9.02793 29.854 9.12416 29.7295 9.25436C29.6049 9.38455 29.5031 9.54588 29.4238 9.73835C29.3502 9.92515 29.3134 10.1431 29.3134 10.3922Z" fill="#B7B8C3"/>
<path d="M34.7426 13.4489V7.3354H36.5767V10.3922L38.139 7.3354H39.99V13.4489H38.139V10.3922L36.5767 13.4489H34.7426ZM36.0163 5.79004H37.0861C37.0861 5.86363 37.1144 5.92873 37.171 5.98533C37.2276 6.04194 37.2899 6.07024 37.3578 6.07024C37.4371 6.07024 37.5022 6.04477 37.5531 5.99382C37.6041 5.93722 37.6295 5.86929 37.6295 5.79004H38.6994C38.6994 5.97684 38.6626 6.14949 38.589 6.30799C38.5211 6.46083 38.4249 6.59668 38.3003 6.71556C38.1758 6.82877 38.0314 6.91934 37.8673 6.98727C37.7088 7.04953 37.539 7.08067 37.3578 7.08067C37.1767 7.08067 37.004 7.04953 36.8399 6.98727C36.6814 6.91934 36.5399 6.82877 36.4153 6.71556C36.2965 6.59668 36.2002 6.458 36.1266 6.2995C36.053 6.141 36.0163 5.97118 36.0163 5.79004Z" fill="#B7B8C3"/>
<path d="M40.8367 9.80627H42.9085V11.0205H40.8367V9.80627Z" fill="#B7B8C3"/>
<path d="M43.756 13.4489V7.3354H48.8251V13.4489H46.9401V8.86377H45.641V13.4489H43.756Z" fill="#B7B8C3"/>
<path d="M51.9685 8.86377L51.7223 10.545H52.4356L52.1893 8.86377H51.9685ZM51.2978 13.4489H49.3618L50.559 7.3354H53.5988L54.796 13.4489H52.8601L52.6393 11.9205H51.5185L51.2978 13.4489Z" fill="#B7B8C3"/>
<path d="M55.3316 13.4489V7.3354H57.5138C57.9043 7.3354 58.2525 7.392 58.5581 7.50522C58.8695 7.61843 59.1327 7.77693 59.3478 7.98071C59.5629 8.1845 59.7271 8.4279 59.8403 8.71094C59.9535 8.98831 60.0101 9.29398 60.0101 9.62796C60.0101 9.94496 59.9648 10.245 59.8742 10.528C59.7893 10.8054 59.6478 11.0488 59.4497 11.2582C59.2572 11.462 59.0053 11.6233 58.694 11.7422C58.3827 11.8611 58.0006 11.9205 57.5477 11.9205H57.1911V13.4489H55.3316ZM57.1911 8.86377V10.3922H57.4713C57.6807 10.3922 57.8449 10.3327 57.9638 10.2138C58.0883 10.095 58.1506 9.89967 58.1506 9.62796C58.1506 9.34493 58.0883 9.14681 57.9638 9.03359C57.8449 8.92038 57.6807 8.86377 57.4713 8.86377H57.1911Z" fill="#B7B8C3"/>
<path d="M60.7711 13.4489V7.3354H62.6306V9.594H62.6476L63.7514 7.3354H65.8827L64.1335 10.2223L66.061 13.4489H63.7939L62.6476 10.9695H62.6306V13.4489H60.7711Z" fill="#B7B8C3"/>
<path d="M18.4595 18.2209H17.7534L18.85 16.8087L17.7748 15.6372H18.4702L19.3957 16.6482V15.6372H19.9573V16.6482L20.8828 15.6372H21.5782L20.503 16.8087L21.5996 18.2209H20.8935L20.1018 17.1564L19.9573 17.3062V18.2209H19.3957V17.3062L19.2512 17.1564L18.4595 18.2209Z" fill="#B7B8C3"/>
<path d="M22.9928 18.2209H22.4525V15.6372H23.0142V17.3757L24.2017 15.6372H24.7634V18.2209H24.2017V16.4343L22.9928 18.2209Z" fill="#B7B8C3"/>
<path d="M25.6801 18.2851V17.8251C25.7906 17.8251 25.878 17.7538 25.9422 17.6111C26.0099 17.4685 26.0652 17.2295 26.108 16.8943L26.2631 15.6372H28.2584V18.2209H27.6968V16.1294H26.7606L26.6697 16.9585C26.6198 17.4221 26.5146 17.7591 26.3541 17.9695C26.1936 18.1799 25.9689 18.2851 25.6801 18.2851Z" fill="#B7B8C3"/>
<path d="M30.6087 18.2851C30.2093 18.2851 29.8883 18.155 29.6458 17.8946C29.4033 17.6307 29.2821 17.308 29.2821 16.9264C29.2821 16.5448 29.4033 16.2239 29.6458 15.9635C29.8883 15.7032 30.2093 15.573 30.6087 15.573C31.0117 15.573 31.3344 15.7032 31.5769 15.9635C31.8194 16.2239 31.9407 16.5448 31.9407 16.9264C31.9407 17.3116 31.8194 17.6343 31.5769 17.8946C31.3344 18.155 31.0117 18.2851 30.6087 18.2851ZM30.6087 17.7876C30.8405 17.7876 31.0224 17.7056 31.1543 17.5416C31.2899 17.374 31.3576 17.1689 31.3576 16.9264C31.3576 16.6875 31.2899 16.486 31.1543 16.3219C31.0224 16.1543 30.8405 16.0705 30.6087 16.0705C30.3805 16.0705 30.1986 16.1543 30.0631 16.3219C29.9311 16.486 29.8652 16.6875 29.8652 16.9264C29.8652 17.1689 29.9311 17.374 30.0631 17.5416C30.1986 17.7056 30.3805 17.7876 30.6087 17.7876Z" fill="#B7B8C3"/>
<path d="M33.504 18.2209H32.9637V15.6372H33.5254V17.3757L34.7129 15.6372H35.2746V18.2209H34.7129V16.4343L33.504 18.2209ZM35.0553 14.8937C34.8235 15.2075 34.5114 15.3644 34.1192 15.3644C33.7304 15.3644 33.4166 15.2075 33.1777 14.8937L33.4344 14.6797C33.6056 14.9151 33.8339 15.0327 34.1192 15.0327C34.4044 15.0327 34.6309 14.9151 34.7985 14.6797L35.0553 14.8937Z" fill="#B7B8C3"/>
<path d="M40.7052 18.2209H39.9991L39.2074 17.1564L38.849 17.5255V18.2209H38.2873V15.6372H38.849V16.8836L39.9884 15.6372H40.6838L39.6086 16.8087L40.7052 18.2209Z" fill="#B7B8C3"/>
<path d="M42.6977 18.2851C42.2983 18.2851 41.9774 18.155 41.7349 17.8946C41.4924 17.6307 41.3711 17.308 41.3711 16.9264C41.3711 16.5448 41.4924 16.2239 41.7349 15.9635C41.9774 15.7032 42.2983 15.573 42.6977 15.573C43.1007 15.573 43.4235 15.7032 43.666 15.9635C43.9085 16.2239 44.0297 16.5448 44.0297 16.9264C44.0297 17.3116 43.9085 17.6343 43.666 17.8946C43.4235 18.155 43.1007 18.2851 42.6977 18.2851ZM42.6977 17.7876C42.9296 17.7876 43.1114 17.7056 43.2434 17.5416C43.3789 17.374 43.4466 17.1689 43.4466 16.9264C43.4466 16.6875 43.3789 16.486 43.2434 16.3219C43.1114 16.1543 42.9296 16.0705 42.6977 16.0705C42.4695 16.0705 42.2876 16.1543 42.1521 16.3219C42.0202 16.486 41.9542 16.6875 41.9542 16.9264C41.9542 17.1689 42.0202 17.374 42.1521 17.5416C42.2876 17.7056 42.4695 17.7876 42.6977 17.7876Z" fill="#B7B8C3"/>
<path d="M47.9467 18.2209H47.385V16.4236L46.6147 18.2209H46.3901L45.6144 16.4236V18.2209H45.0527V15.6372H45.7856L46.5024 17.3062L47.2085 15.6372H47.9467V18.2209Z" fill="#B7B8C3"/>
<path d="M51.4385 18.2209H50.8769V16.1294H49.6893V18.2209H49.1276V15.6372H51.4385V18.2209Z" fill="#B7B8C3"/>
<path d="M52.3552 18.2851V17.8251C52.4657 17.8251 52.5531 17.7538 52.6173 17.6111C52.6851 17.4685 52.7403 17.2295 52.7831 16.8943L52.9383 15.6372H54.9336V18.2209H54.3719V16.1294H53.4357L53.3448 16.9585C53.2949 17.4221 53.1897 17.7591 53.0292 17.9695C52.8687 18.1799 52.644 18.2851 52.3552 18.2851Z" fill="#B7B8C3"/>
<path d="M57.3106 18.2851C56.9183 18.2851 56.5938 18.1603 56.337 17.9107C56.0838 17.6575 55.9572 17.3294 55.9572 16.9264C55.9572 16.5484 56.0802 16.2292 56.3263 15.9689C56.5759 15.705 56.8898 15.573 57.2678 15.573C57.6494 15.573 57.9561 15.705 58.1879 15.9689C58.4232 16.2328 58.5409 16.5698 58.5409 16.9799V17.1136H56.5456C56.567 17.3169 56.6508 17.4863 56.797 17.6218C56.9433 17.7573 57.134 17.8251 57.3694 17.8251C57.5014 17.8251 57.6333 17.8001 57.7653 17.7502C57.9008 17.7003 58.0131 17.6307 58.1023 17.5416L58.359 17.9107C58.0987 18.1603 57.7492 18.2851 57.3106 18.2851ZM57.9953 16.7178C57.9882 16.5395 57.9222 16.3808 57.7974 16.2417C57.6761 16.1026 57.4996 16.0331 57.2678 16.0331C57.0467 16.0331 56.8737 16.1026 56.7489 16.2417C56.6241 16.3772 56.5545 16.5359 56.5403 16.7178H57.9953Z" fill="#B7B8C3"/>
<path d="M61.9679 18.2209H61.2618L60.4701 17.1564L60.1117 17.5255V18.2209H59.55V15.6372H60.1117V16.8836L61.2511 15.6372H61.9465L60.8713 16.8087L61.9679 18.2209Z" fill="#B7B8C3"/>
<path d="M63.9711 18.2851C63.5789 18.2851 63.2579 18.1585 63.0083 17.9053C62.7586 17.6486 62.6338 17.3223 62.6338 16.9264C62.6338 16.5341 62.7586 16.2114 63.0083 15.9582C63.2579 15.7014 63.5789 15.573 63.9711 15.573C64.4027 15.573 64.7325 15.7264 64.9608 16.0331L64.5917 16.3754C64.449 16.1721 64.2511 16.0705 63.9979 16.0705C63.7625 16.0705 63.5735 16.1508 63.4309 16.3112C63.2882 16.4681 63.2169 16.6732 63.2169 16.9264C63.2169 17.1796 63.2882 17.3864 63.4309 17.5469C63.5735 17.7074 63.7625 17.7876 63.9979 17.7876C64.244 17.7876 64.4419 17.686 64.5917 17.4827L64.9608 17.8251C64.7325 18.1318 64.4027 18.2851 63.9711 18.2851Z" fill="#B7B8C3"/>
</svg>
