<svg width="15" height="20" viewBox="0 0 15 20" fill="none" xmlns="http://www.w3.org/2000/svg">
<path d="M6.54997 16.2003L11.725 10.0003H7.72497L8.44997 4.32533L3.82497 11.0003H7.29997L6.54997 16.2003ZM4.99997 13.0003H1.89997C1.49997 13.0003 1.20414 12.8212 1.01247 12.4628C0.820803 12.1045 0.841636 11.7587 1.07497 11.4253L8.54997 0.675331C8.71664 0.441998 8.9333 0.279498 9.19997 0.187831C9.46664 0.0961645 9.74164 0.100331 10.025 0.200331C10.3083 0.300331 10.5166 0.475331 10.65 0.725331C10.7833 0.975331 10.8333 1.242 10.8 1.52533L9.99997 8.00033H13.875C14.3083 8.00033 14.6125 8.192 14.7875 8.57533C14.9625 8.95866 14.9083 9.317 14.625 9.65033L6.39997 19.5003C6.21664 19.717 5.99164 19.8587 5.72497 19.9253C5.4583 19.992 5.19997 19.967 4.94997 19.8503C4.69997 19.7337 4.50414 19.5545 4.36247 19.3128C4.2208 19.0712 4.16664 18.8087 4.19997 18.5253L4.99997 13.0003Z" fill="white"/>
</svg>
