<svg width="16" height="22" viewBox="0 0 16 22" fill="none" xmlns="http://www.w3.org/2000/svg">
<path d="M2 22.0004C1.45 22.0004 0.979167 21.8046 0.5875 21.4129C0.195833 21.0212 0 20.5504 0 20.0004V9.00039C0 8.45039 0.195833 7.97956 0.5875 7.58789C0.979167 7.19622 1.45 7.00039 2 7.00039H4C4.28333 7.00039 4.52083 7.09622 4.7125 7.28789C4.90417 7.47956 5 7.71706 5 8.00039C5 8.28372 4.90417 8.52122 4.7125 8.71289C4.52083 8.90456 4.28333 9.00039 4 9.00039H2V20.0004H14V9.00039H12C11.7167 9.00039 11.4792 8.90456 11.2875 8.71289C11.0958 8.52122 11 8.28372 11 8.00039C11 7.71706 11.0958 7.47956 11.2875 7.28789C11.4792 7.09622 11.7167 7.00039 12 7.00039H14C14.55 7.00039 15.0208 7.19622 15.4125 7.58789C15.8042 7.97956 16 8.45039 16 9.00039V20.0004C16 20.5504 15.8042 21.0212 15.4125 21.4129C15.0208 21.8046 14.55 22.0004 14 22.0004H2ZM7 3.82539L6.1 4.72539C5.9 4.92539 5.66667 5.02122 5.4 5.01289C5.13333 5.00456 4.9 4.90039 4.7 4.70039C4.51667 4.50039 4.42083 4.26706 4.4125 4.00039C4.40417 3.73372 4.5 3.50039 4.7 3.30039L7.3 0.700391C7.5 0.500391 7.73333 0.400391 8 0.400391C8.26667 0.400391 8.5 0.500391 8.7 0.700391L11.3 3.30039C11.4833 3.48372 11.575 3.71289 11.575 3.98789C11.575 4.26289 11.4833 4.50039 11.3 4.70039C11.1 4.90039 10.8625 5.00039 10.5875 5.00039C10.3125 5.00039 10.075 4.90039 9.875 4.70039L9 3.82539V14.0004C9 14.2837 8.90417 14.5212 8.7125 14.7129C8.52083 14.9046 8.28333 15.0004 8 15.0004C7.71667 15.0004 7.47917 14.9046 7.2875 14.7129C7.09583 14.5212 7 14.2837 7 14.0004V3.82539Z" fill="#6F77FE"/>
</svg>
