<svg width="16" height="10" viewBox="0 0 16 10" fill="none" xmlns="http://www.w3.org/2000/svg">
<path d="M1.33333 10C1.09722 10 0.899306 9.92014 0.739583 9.76042C0.579861 9.60069 0.5 9.40278 0.5 9.16667C0.5 8.93056 0.579861 8.73264 0.739583 8.57292C0.899306 8.41319 1.09722 8.33333 1.33333 8.33333H4.66667C4.90278 8.33333 5.10069 8.41319 5.26042 8.57292C5.42014 8.73264 5.5 8.93056 5.5 9.16667C5.5 9.40278 5.42014 9.60069 5.26042 9.76042C5.10069 9.92014 4.90278 10 4.66667 10H1.33333ZM1.33333 5.83333C1.09722 5.83333 0.899306 5.75347 0.739583 5.59375C0.579861 5.43403 0.5 5.23611 0.5 5C0.5 4.76389 0.579861 4.56597 0.739583 4.40625C0.899306 4.24653 1.09722 4.16667 1.33333 4.16667H9.66667C9.90278 4.16667 10.1007 4.24653 10.2604 4.40625C10.4201 4.56597 10.5 4.76389 10.5 5C10.5 5.23611 10.4201 5.43403 10.2604 5.59375C10.1007 5.75347 9.90278 5.83333 9.66667 5.83333H1.33333ZM1.33333 1.66667C1.09722 1.66667 0.899306 1.58681 0.739583 1.42708C0.579861 1.26736 0.5 1.06944 0.5 0.833333C0.5 0.597222 0.579861 0.399306 0.739583 0.239583C0.899306 0.0798611 1.09722 0 1.33333 0H14.6667C14.9028 0 15.1007 0.0798611 15.2604 0.239583C15.4201 0.399306 15.5 0.597222 15.5 0.833333C15.5 1.06944 15.4201 1.26736 15.2604 1.42708C15.1007 1.58681 14.9028 1.66667 14.6667 1.66667H1.33333Z" fill="#6F77FE"/>
</svg>
