<svg width="67" height="14" viewBox="0 0 67 14" fill="none" xmlns="http://www.w3.org/2000/svg">
<path d="M19.484 11.1811C19.7251 11.2726 19.8457 11.4389 19.8457 11.6801C19.8457 11.8547 19.7778 12.0016 19.642 12.1208C19.5117 12.24 19.3204 12.2996 19.0682 12.2996C18.6468 12.2996 18.3724 12.1333 18.2449 11.8007L18.4777 11.6635C18.5664 11.9102 18.7632 12.0335 19.0682 12.0335C19.2262 12.0335 19.3495 12.0003 19.4382 11.9337C19.5269 11.8644 19.5713 11.7743 19.5713 11.6635C19.5713 11.5637 19.5352 11.4847 19.4632 11.4264C19.3911 11.3655 19.2941 11.335 19.1721 11.335H18.8686V11.0689H19.0889C19.2081 11.0689 19.301 11.0397 19.3675 10.9815C19.4368 10.9206 19.4715 10.8374 19.4715 10.7321C19.4715 10.6323 19.4299 10.5505 19.3467 10.4867C19.2664 10.4202 19.1596 10.3869 19.0266 10.3869C18.7688 10.3869 18.5955 10.4909 18.5068 10.6988L18.2781 10.5657C18.4167 10.2691 18.6662 10.1208 19.0266 10.1208C19.2483 10.1208 19.423 10.179 19.5505 10.2955C19.6808 10.4091 19.7459 10.5491 19.7459 10.7154C19.7459 10.9289 19.6586 11.0841 19.484 11.1811Z" fill="#F25A50"/>
<path d="M21.9219 11.9878C21.7084 12.1957 21.4506 12.2996 21.1485 12.2996C20.8408 12.2996 20.5816 12.1957 20.3709 11.9878C20.1602 11.7771 20.0549 11.5179 20.0549 11.2102C20.0549 10.9025 20.1602 10.6447 20.3709 10.4368C20.5816 10.2262 20.8408 10.1208 21.1485 10.1208C21.4534 10.1208 21.7112 10.2262 21.9219 10.4368C22.1353 10.6447 22.242 10.9025 22.242 11.2102C22.242 11.5152 22.1353 11.7743 21.9219 11.9878ZM20.5663 11.7965C20.7243 11.9545 20.9184 12.0335 21.1485 12.0335C21.3785 12.0335 21.5726 11.9545 21.7306 11.7965C21.8886 11.633 21.9676 11.4375 21.9676 11.2102C21.9676 10.9802 21.8886 10.7861 21.7306 10.6281C21.5726 10.4673 21.3785 10.3869 21.1485 10.3869C20.9184 10.3869 20.7243 10.4673 20.5663 10.6281C20.4083 10.7861 20.3293 10.9802 20.3293 11.2102C20.3293 11.4375 20.4083 11.633 20.5663 11.7965Z" fill="#F25A50"/>
<path d="M22.7531 10.1707H24.2417V12.2497H23.9673V10.4368H23.0275V11.3641C23.0275 11.7106 22.961 11.949 22.828 12.0793C22.6977 12.2095 22.5175 12.2664 22.2874 12.2497V11.9919C22.4482 12.0086 22.566 11.9698 22.6408 11.8755C22.7157 11.7813 22.7531 11.6108 22.7531 11.3641V10.1707Z" fill="#F25A50"/>
<path d="M26.482 11.9878C26.2686 12.1957 26.0108 12.2996 25.7087 12.2996C25.401 12.2996 25.1418 12.1957 24.9311 11.9878C24.7204 11.7771 24.6151 11.5179 24.6151 11.2102C24.6151 10.9025 24.7204 10.6447 24.9311 10.4368C25.1418 10.2262 25.401 10.1208 25.7087 10.1208C26.0136 10.1208 26.2714 10.2262 26.482 10.4368C26.6955 10.6447 26.8022 10.9025 26.8022 11.2102C26.8022 11.5152 26.6955 11.7743 26.482 11.9878ZM25.1265 11.7965C25.2845 11.9545 25.4786 12.0335 25.7087 12.0335C25.9387 12.0335 26.1328 11.9545 26.2908 11.7965C26.4488 11.633 26.5278 11.4375 26.5278 11.2102C26.5278 10.9802 26.4488 10.7861 26.2908 10.6281C26.1328 10.4673 25.9387 10.3869 25.7087 10.3869C25.4786 10.3869 25.2845 10.4673 25.1265 10.6281C24.9685 10.7861 24.8895 10.9802 24.8895 11.2102C24.8895 11.4375 24.9685 11.633 25.1265 11.7965Z" fill="#F25A50"/>
<path d="M26.8476 10.1707H28.594V10.4368H27.858V12.2497H27.5836V10.4368H26.8476V10.1707Z" fill="#F25A50"/>
<path d="M30.5062 11.9878C30.2928 12.1957 30.035 12.2996 29.7328 12.2996C29.4251 12.2996 29.166 12.1957 28.9553 11.9878C28.7446 11.7771 28.6393 11.5179 28.6393 11.2102C28.6393 10.9025 28.7446 10.6447 28.9553 10.4368C29.166 10.2262 29.4251 10.1208 29.7328 10.1208C30.0378 10.1208 30.2956 10.2262 30.5062 10.4368C30.7197 10.6447 30.8264 10.9025 30.8264 11.2102C30.8264 11.5152 30.7197 11.7743 30.5062 11.9878ZM29.1507 11.7965C29.3087 11.9545 29.5028 12.0335 29.7328 12.0335C29.9629 12.0335 30.157 11.9545 30.315 11.7965C30.473 11.633 30.552 11.4375 30.552 11.2102C30.552 10.9802 30.473 10.7861 30.315 10.6281C30.157 10.4673 29.9629 10.3869 29.7328 10.3869C29.5028 10.3869 29.3087 10.4673 29.1507 10.6281C28.9927 10.7861 28.9137 10.9802 28.9137 11.2102C28.9137 11.4375 28.9927 11.633 29.1507 11.7965Z" fill="#F25A50"/>
<path d="M32.6162 9.83808H31.5351V9.59691H32.6162V9.83808ZM31.4769 11.7716L32.716 10.1707H32.9488V12.2497H32.6744V10.6489L31.4353 12.2497H31.2025V10.1707H31.4769V11.7716Z" fill="#F25A50"/>
<path d="M35.4751 11.1811C35.7163 11.2726 35.8369 11.4389 35.8369 11.6801C35.8369 11.8547 35.769 12.0016 35.6331 12.1208C35.5029 12.24 35.3116 12.2996 35.0593 12.2996C34.638 12.2996 34.3636 12.1333 34.236 11.8007L34.4689 11.6635C34.5576 11.9102 34.7544 12.0335 35.0593 12.0335C35.2173 12.0335 35.3407 12.0003 35.4294 11.9337C35.5181 11.8644 35.5625 11.7743 35.5625 11.6635C35.5625 11.5637 35.5264 11.4847 35.4544 11.4264C35.3823 11.3655 35.2853 11.335 35.1633 11.335H34.8598V11.0689H35.0801C35.1993 11.0689 35.2922 11.0397 35.3587 10.9815C35.428 10.9206 35.4627 10.8374 35.4627 10.7321C35.4627 10.6323 35.4211 10.5505 35.3379 10.4867C35.2575 10.4202 35.1508 10.3869 35.0178 10.3869C34.76 10.3869 34.5867 10.4909 34.498 10.6988L34.2693 10.5657C34.4079 10.2691 34.6574 10.1208 35.0178 10.1208C35.2395 10.1208 35.4142 10.179 35.5417 10.2955C35.672 10.4091 35.7371 10.5491 35.7371 10.7154C35.7371 10.9289 35.6498 11.0841 35.4751 11.1811Z" fill="#F25A50"/>
<path d="M37.6428 11.0772V10.1707H37.9172V12.2497H37.6428V11.3433H36.4453V12.2497H36.1708V10.1707H36.4453V11.0772H37.6428Z" fill="#F25A50"/>
<path d="M40.2023 10.5782V10.1707H40.4768V12.2497H40.2023V11.8422C40.0111 12.1472 39.7311 12.2996 39.3624 12.2996C39.0658 12.2996 38.8122 12.1943 38.6015 11.9836C38.3936 11.7729 38.2896 11.5152 38.2896 11.2102C38.2896 10.9053 38.3936 10.6475 38.6015 10.4368C38.8122 10.2262 39.0658 10.1208 39.3624 10.1208C39.7311 10.1208 40.0111 10.2733 40.2023 10.5782ZM38.8011 11.7965C38.9591 11.9545 39.1531 12.0335 39.3832 12.0335C39.6133 12.0335 39.8073 11.9545 39.9653 11.7965C40.1233 11.633 40.2023 11.4375 40.2023 11.2102C40.2023 10.9802 40.1233 10.7861 39.9653 10.6281C39.8073 10.4673 39.6133 10.3869 39.3832 10.3869C39.1531 10.3869 38.9591 10.4673 38.8011 10.6281C38.6431 10.7861 38.5641 10.9802 38.5641 11.2102C38.5641 11.4375 38.6431 11.633 38.8011 11.7965Z" fill="#F25A50"/>
<path d="M41.5401 11.1686L42.6545 12.2497H42.2886L41.2491 11.2477V12.2497H40.9747V10.1707H41.2491V11.0896L42.2387 10.1707H42.6129L41.5401 11.1686Z" fill="#F25A50"/>
<path d="M45.3744 11.0772V10.1707H45.6489V12.2497H45.3744V11.3433H44.1769V12.2497H43.9025V10.1707H44.1769V11.0772H45.3744Z" fill="#F25A50"/>
<path d="M47.934 10.5782V10.1707H48.2084V12.2497H47.934V11.8422C47.7427 12.1472 47.4627 12.2996 47.0941 12.2996C46.7975 12.2996 46.5438 12.1943 46.3331 11.9836C46.1252 11.7729 46.0213 11.5152 46.0213 11.2102C46.0213 10.9053 46.1252 10.6475 46.3331 10.4368C46.5438 10.2262 46.7975 10.1208 47.0941 10.1208C47.4627 10.1208 47.7427 10.2733 47.934 10.5782ZM46.5327 11.7965C46.6907 11.9545 46.8848 12.0335 47.1149 12.0335C47.3449 12.0335 47.539 11.9545 47.697 11.7965C47.855 11.633 47.934 11.4375 47.934 11.2102C47.934 10.9802 47.855 10.7861 47.697 10.6281C47.539 10.4673 47.3449 10.3869 47.1149 10.3869C46.8848 10.3869 46.6907 10.4673 46.5327 10.6281C46.3747 10.7861 46.2957 10.9802 46.2957 11.2102C46.2957 11.4375 46.3747 11.633 46.5327 11.7965Z" fill="#F25A50"/>
<path d="M50.4527 10.1707V11.9836H50.7437V12.8069H50.4693V12.2497H48.7728V12.8069H48.4984V11.9836H48.7521C48.8934 11.7951 48.9641 11.5332 48.9641 11.1978V10.1707H50.4527ZM49.0847 11.9836H50.1782V10.4368H49.2385V11.1978C49.2385 11.5193 49.1873 11.7813 49.0847 11.9836Z" fill="#F25A50"/>
<path d="M51.955 10.1208C52.2655 10.1208 52.5136 10.2303 52.6993 10.4493C52.8906 10.6655 52.9862 10.9219 52.9862 11.2185C52.9862 11.2324 52.9834 11.2754 52.9779 11.3474H51.1525C51.1803 11.5553 51.269 11.7217 51.4186 11.8464C51.5683 11.9711 51.7554 12.0335 51.98 12.0335C52.296 12.0335 52.5191 11.9157 52.6494 11.6801L52.8906 11.8215C52.7991 11.9711 52.673 12.089 52.5122 12.1749C52.3542 12.2581 52.1754 12.2996 51.9758 12.2996C51.6487 12.2996 51.3826 12.1971 51.1775 11.9919C50.9723 11.7868 50.8698 11.5262 50.8698 11.2102C50.8698 10.897 50.971 10.6378 51.1733 10.4327C51.3757 10.2248 51.6362 10.1208 51.955 10.1208ZM51.955 10.3869C51.7388 10.3869 51.5572 10.4507 51.4103 10.5782C51.2662 10.7057 51.1803 10.8734 51.1525 11.0813H52.7035C52.673 10.8596 52.5884 10.6891 52.4498 10.5699C52.3057 10.4479 52.1408 10.3869 51.955 10.3869Z" fill="#F25A50"/>
<path d="M54.7106 11.1686L55.642 12.2497H55.3094L54.4611 11.2477V12.2497H54.1867V11.2477L53.3384 12.2497H53.0058L53.9372 11.1686L53.0474 10.1707H53.38L54.1867 11.0938V10.1707H54.4611V11.0938L55.2678 10.1707H55.6004L54.7106 11.1686Z" fill="#F25A50"/>
<path d="M57.4043 11.0772V10.1707H57.6787V12.2497H57.4043V11.3433H56.2068V12.2497H55.9323V10.1707H56.2068V11.0772H57.4043Z" fill="#F25A50"/>
<path d="M59.9181 11.9878C59.7047 12.1957 59.4469 12.2996 59.1447 12.2996C58.837 12.2996 58.5778 12.1957 58.3672 11.9878C58.1565 11.7771 58.0512 11.5179 58.0512 11.2102C58.0512 10.9025 58.1565 10.6447 58.3672 10.4368C58.5778 10.2262 58.837 10.1208 59.1447 10.1208C59.4496 10.1208 59.7074 10.2262 59.9181 10.4368C60.1315 10.6447 60.2383 10.9025 60.2383 11.2102C60.2383 11.5152 60.1315 11.7743 59.9181 11.9878ZM58.5626 11.7965C58.7206 11.9545 58.9146 12.0335 59.1447 12.0335C59.3748 12.0335 59.5688 11.9545 59.7268 11.7965C59.8848 11.633 59.9638 11.4375 59.9638 11.2102C59.9638 10.9802 59.8848 10.7861 59.7268 10.6281C59.5688 10.4673 59.3748 10.3869 59.1447 10.3869C58.9146 10.3869 58.7206 10.4673 58.5626 10.6281C58.4046 10.7861 58.3256 10.9802 58.3256 11.2102C58.3256 11.4375 58.4046 11.633 58.5626 11.7965Z" fill="#F25A50"/>
<path d="M61.5832 12.2996C61.2699 12.2996 61.0094 12.1957 60.8015 11.9878C60.5936 11.7743 60.4896 11.5152 60.4896 11.2102C60.4896 10.9025 60.5936 10.6447 60.8015 10.4368C61.0094 10.2262 61.2699 10.1208 61.5832 10.1208C61.7883 10.1208 61.9726 10.1707 62.1362 10.2705C62.2997 10.3675 62.4189 10.4992 62.4938 10.6655L62.2692 10.7944C62.2138 10.6697 62.1237 10.5713 61.999 10.4992C61.877 10.4244 61.7384 10.3869 61.5832 10.3869C61.3531 10.3869 61.159 10.4673 61.001 10.6281C60.843 10.7861 60.764 10.9802 60.764 11.2102C60.764 11.4375 60.843 11.633 61.001 11.7965C61.159 11.9545 61.3531 12.0335 61.5832 12.0335C61.7356 12.0335 61.8728 11.9975 61.9948 11.9254C62.1196 11.8533 62.2166 11.7535 62.2859 11.626L62.5146 11.7591C62.4286 11.9254 62.3025 12.0571 62.1362 12.1541C61.9699 12.2511 61.7855 12.2996 61.5832 12.2996Z" fill="#F25A50"/>
<path d="M62.5353 10.1707H64.2817V10.4368H63.5457V12.2497H63.2713V10.4368H62.5353V10.1707Z" fill="#F25A50"/>
<path d="M64.8074 11.7716L66.0465 10.1707H66.2793V12.2497H66.0049V10.6489L64.7658 12.2497H64.533V10.1707H64.8074V11.7716Z" fill="#F25A50"/>
<path d="M22.3373 3.249C22.9927 3.249 23.5468 3.47754 23.9996 3.93461C24.4566 4.38737 24.6852 4.94147 24.6852 5.5969C24.6852 6.25233 24.4566 6.80858 23.9996 7.26565C23.5468 7.71841 22.9927 7.9448 22.3373 7.9448C21.7336 7.9448 21.2162 7.75075 20.785 7.36267C20.3581 6.97459 20.108 6.48302 20.0347 5.88796H19.3167V7.86071H18.5729V3.33308H19.3167V5.17647H20.0541C20.1532 4.62022 20.412 4.16099 20.8302 3.79878C21.2528 3.43226 21.7552 3.249 22.3373 3.249ZM22.3373 3.97342C21.8802 3.97342 21.4986 4.1265 21.1924 4.43265C20.8863 4.7388 20.7332 5.12689 20.7332 5.5969C20.7332 6.05828 20.8863 6.44637 21.1924 6.76114C21.5072 7.0673 21.8888 7.22038 22.3373 7.22038C22.79 7.22038 23.1695 7.0673 23.4757 6.76114C23.7861 6.45068 23.9414 6.0626 23.9414 5.5969C23.9414 5.1312 23.7861 4.74527 23.4757 4.43912C23.1695 4.12865 22.79 3.97342 22.3373 3.97342Z" fill="#F25A50"/>
<path d="M25.1237 4.62669H27.2905V5.29937H25.8223V7.86071H25.1237V4.62669Z" fill="#F25A50"/>
<path d="M30.0084 6.23076H27.6153V5.55809H30.0084V6.23076Z" fill="#F25A50"/>
<path d="M34.1788 7.86071H33.435V4.78839L31.3005 7.86071H30.7184V3.33308H31.4622V6.4054L33.5967 3.33308H34.1788V7.86071Z" fill="#F25A50"/>
<path d="M37.0235 5.91383V4.62669H37.722V7.86071H37.0235V6.57357H35.5423V7.86071H34.8438V4.62669H35.5423V5.91383H37.0235Z" fill="#F25A50"/>
<path d="M41.2427 6.21136L42.5039 7.86071H41.7084L40.6088 6.36659V7.86071H39.9232V6.37953L38.8236 7.86071H38.028L39.2893 6.21136L38.0927 4.62669H38.8883L39.9232 6.04319V4.62669H40.6088V6.04966L41.6437 4.62669H42.4393L41.2427 6.21136Z" fill="#F25A50"/>
<path d="M43.4979 6.67706L45.1538 4.62669H45.6906V7.86071H45.005V5.80387L43.3492 7.86071H42.8123V4.62669H43.4979V6.67706Z" fill="#F25A50"/>
<path d="M48.4868 5.91383V4.62669H49.1854V7.86071H48.4868V6.57357H47.0056V7.86071H46.3071V4.62669H47.0056V5.91383H48.4868Z" fill="#F25A50"/>
<path d="M50.4875 6.67706L52.1433 4.62669H52.6801V7.86071H51.9945V5.80387L50.3387 7.86071H49.8019V4.62669H50.4875V6.67706Z" fill="#F25A50"/>
<path d="M55.1271 4.54261C55.5669 4.54261 55.9464 4.70862 56.2654 5.04065C56.5802 5.36836 56.7376 5.76938 56.7376 6.2437C56.7376 6.72234 56.5802 7.12551 56.2654 7.45323C55.9507 7.78094 55.5712 7.9448 55.1271 7.9448C54.6398 7.9448 54.2625 7.76369 53.9952 7.40148V9.15432H53.2966V4.62669H53.9952V5.09239C54.2582 4.72587 54.6355 4.54261 55.1271 4.54261ZM54.2862 6.98753C54.4803 7.18157 54.7239 7.27859 55.0171 7.27859C55.3103 7.27859 55.554 7.18157 55.748 6.98753C55.9421 6.78917 56.0391 6.54123 56.0391 6.2437C56.0391 5.94617 55.9421 5.70039 55.748 5.50634C55.554 5.30799 55.3103 5.20881 55.0171 5.20881C54.7239 5.20881 54.4803 5.30799 54.2862 5.50634C54.0922 5.70039 53.9952 5.94617 53.9952 6.2437C53.9952 6.53692 54.0922 6.78486 54.2862 6.98753Z" fill="#F25A50"/>
<path d="M57.8623 6.67706L59.5181 4.62669H60.055V7.86071H59.3694V5.80387L57.7135 7.86071H57.1767V4.62669H57.8623V6.67706Z" fill="#F25A50"/>
<path d="M62.8512 5.91383V4.62669H63.5497V7.86071H62.8512V6.57357H61.37V7.86071H60.6714V4.62669H61.37V5.91383H62.8512Z" fill="#F25A50"/>
<path d="M64.1662 4.62669H66.333V5.29937H64.8648V7.86071H64.1662V4.62669Z" fill="#F25A50"/>
<path d="M15.6108 12.7117C16.1811 11.604 16.5031 10.3475 16.5031 9.01572C16.5031 4.55047 12.8833 0.930664 8.41806 0.930664C3.95281 0.930664 0.333008 4.55047 0.333008 9.01572C0.333008 10.3475 0.654993 11.604 1.22536 12.7117H1.48802L3.68253 10.7482L4.02903 11.0947V13.4047H4.72204V7.62971H7.49405V12.0187H9.80407V6.0127L11.8831 4.62669V13.4047H12.3451V9.47772L15.3481 11.0947V12.7117H15.6108Z" fill="#F25A50"/>
<path d="M4.95304 7.86071H5.41504V8.32271H4.95304V7.86071Z" fill="#F25A50"/>
<path d="M4.95304 8.55371H5.41504V9.01572H4.95304V8.55371Z" fill="#F25A50"/>
<path d="M4.95304 9.24672H5.41504V9.70872H4.95304V9.24672Z" fill="#F25A50"/>
<path d="M5.64604 7.86071H6.10805V8.32271H5.64604V7.86071Z" fill="#F25A50"/>
<path d="M10.7281 5.7817H11.4211V6.2437H10.7281V5.7817Z" fill="#F25A50"/>
<path d="M10.7281 6.4747H11.4211V6.9367H10.7281V6.4747Z" fill="#F25A50"/>
<path d="M10.7281 7.1677H11.4211V7.62971H10.7281V7.1677Z" fill="#F25A50"/>
</svg>
